<svg width="431" height="195" viewBox="0 0 431 195" fill="none" xmlns="http://www.w3.org/2000/svg">
<path d="M31 174.5H431" stroke="#CCCCCC" stroke-dasharray="4 2"/>
<path d="M31 132.75H431" stroke="#CCCCCC" stroke-dasharray="4 2"/>
<path d="M31 91H431" stroke="#CCCCCC" stroke-dasharray="4 2"/>
<path d="M31 49.25H431" stroke="#CCCCCC" stroke-dasharray="4 2"/>
<path d="M31 7.5H431" stroke="#CCCCCC" stroke-dasharray="4 2"/>
<path d="M31.5 7V175" stroke="#CCCCCC" stroke-dasharray="4 2"/>
<path d="M164.5 7V175" stroke="#CCCCCC" stroke-dasharray="4 2"/>
<path d="M297.5 7V175" stroke="#CCCCCC" stroke-dasharray="4 2"/>
<path d="M430.5 7V175" stroke="#CCCCCC" stroke-dasharray="4 2"/>
<path d="M20.3145 173.055V174.355C20.3145 175.055 20.252 175.645 20.127 176.125C20.002 176.605 19.8223 176.992 19.5879 177.285C19.3535 177.578 19.0703 177.791 18.7383 177.924C18.4102 178.053 18.0391 178.117 17.625 178.117C17.2969 178.117 16.9941 178.076 16.7168 177.994C16.4395 177.912 16.1895 177.781 15.9668 177.602C15.748 177.418 15.5605 177.18 15.4043 176.887C15.248 176.594 15.1289 176.238 15.0469 175.82C14.9648 175.402 14.9238 174.914 14.9238 174.355V173.055C14.9238 172.355 14.9863 171.77 15.1113 171.297C15.2402 170.824 15.4219 170.445 15.6562 170.16C15.8906 169.871 16.1719 169.664 16.5 169.539C16.832 169.414 17.2031 169.352 17.6133 169.352C17.9453 169.352 18.25 169.393 18.5273 169.475C18.8086 169.553 19.0586 169.68 19.2773 169.855C19.4961 170.027 19.6816 170.258 19.834 170.547C19.9902 170.832 20.1094 171.182 20.1914 171.596C20.2734 172.01 20.3145 172.496 20.3145 173.055ZM19.2246 174.531V172.873C19.2246 172.49 19.2012 172.154 19.1543 171.865C19.1113 171.572 19.0469 171.322 18.9609 171.115C18.875 170.908 18.7656 170.74 18.6328 170.611C18.5039 170.482 18.3535 170.389 18.1816 170.33C18.0137 170.268 17.8242 170.236 17.6133 170.236C17.3555 170.236 17.127 170.285 16.9277 170.383C16.7285 170.477 16.5605 170.627 16.4238 170.834C16.291 171.041 16.1895 171.312 16.1191 171.648C16.0488 171.984 16.0137 172.393 16.0137 172.873V174.531C16.0137 174.914 16.0352 175.252 16.0781 175.545C16.125 175.838 16.1934 176.092 16.2832 176.307C16.373 176.518 16.4824 176.691 16.6113 176.828C16.7402 176.965 16.8887 177.066 17.0566 177.133C17.2285 177.195 17.418 177.227 17.625 177.227C17.8906 177.227 18.123 177.176 18.3223 177.074C18.5215 176.973 18.6875 176.814 18.8203 176.6C18.957 176.381 19.0586 176.102 19.125 175.762C19.1914 175.418 19.2246 175.008 19.2246 174.531Z" fill="#333333"/>
<path d="M13.7988 135.359V136.25H8.21484V135.471L11.0098 132.359C11.3535 131.977 11.6191 131.652 11.8066 131.387C11.998 131.117 12.1309 130.877 12.2051 130.666C12.2832 130.451 12.3223 130.232 12.3223 130.01C12.3223 129.729 12.2637 129.475 12.1465 129.248C12.0332 129.018 11.8652 128.834 11.6426 128.697C11.4199 128.561 11.1504 128.492 10.834 128.492C10.4551 128.492 10.1387 128.566 9.88477 128.715C9.63477 128.859 9.44727 129.062 9.32227 129.324C9.19727 129.586 9.13477 129.887 9.13477 130.227H8.05078C8.05078 129.746 8.15625 129.307 8.36719 128.908C8.57812 128.51 8.89062 128.193 9.30469 127.959C9.71875 127.721 10.2285 127.602 10.834 127.602C11.373 127.602 11.834 127.697 12.2168 127.889C12.5996 128.076 12.8926 128.342 13.0957 128.686C13.3027 129.025 13.4062 129.424 13.4062 129.881C13.4062 130.131 13.3633 130.385 13.2773 130.643C13.1953 130.896 13.0801 131.15 12.9316 131.404C12.7871 131.658 12.6172 131.908 12.4219 132.154C12.2305 132.4 12.0254 132.643 11.8066 132.881L9.52148 135.359H13.7988ZM16.3301 132.189L15.4629 131.967L15.8906 127.719H20.2676V128.721H16.8105L16.5527 131.041C16.709 130.951 16.9062 130.867 17.1445 130.789C17.3867 130.711 17.6641 130.672 17.9766 130.672C18.3711 130.672 18.7246 130.74 19.0371 130.877C19.3496 131.01 19.6152 131.201 19.834 131.451C20.0566 131.701 20.2266 132.002 20.3438 132.354C20.4609 132.705 20.5195 133.098 20.5195 133.531C20.5195 133.941 20.4629 134.318 20.3496 134.662C20.2402 135.006 20.0742 135.307 19.8516 135.564C19.6289 135.818 19.3477 136.016 19.0078 136.156C18.6719 136.297 18.2754 136.367 17.8184 136.367C17.4746 136.367 17.1484 136.32 16.8398 136.227C16.5352 136.129 16.2617 135.982 16.0195 135.787C15.7812 135.588 15.5859 135.342 15.4336 135.049C15.2852 134.752 15.1914 134.404 15.1523 134.006H16.1836C16.2305 134.326 16.3242 134.596 16.4648 134.814C16.6055 135.033 16.7891 135.199 17.0156 135.312C17.2461 135.422 17.5137 135.477 17.8184 135.477C18.0762 135.477 18.3047 135.432 18.5039 135.342C18.7031 135.252 18.8711 135.123 19.0078 134.955C19.1445 134.787 19.248 134.584 19.3184 134.346C19.3926 134.107 19.4297 133.84 19.4297 133.543C19.4297 133.273 19.3926 133.023 19.3184 132.793C19.2441 132.562 19.1328 132.361 18.9844 132.189C18.8398 132.018 18.6621 131.885 18.4512 131.791C18.2402 131.693 17.998 131.645 17.7246 131.645C17.3613 131.645 17.0859 131.693 16.8984 131.791C16.7148 131.889 16.5254 132.021 16.3301 132.189Z" fill="#333333"/>
<path d="M9.58008 90.4395L8.71289 90.2168L9.14062 85.9688H13.5176V86.9707H10.0605L9.80273 89.291C9.95898 89.2012 10.1562 89.1172 10.3945 89.0391C10.6367 88.9609 10.9141 88.9219 11.2266 88.9219C11.6211 88.9219 11.9746 88.9902 12.2871 89.127C12.5996 89.2598 12.8652 89.4512 13.084 89.7012C13.3066 89.9512 13.4766 90.252 13.5938 90.6035C13.7109 90.9551 13.7695 91.3477 13.7695 91.7812C13.7695 92.1914 13.7129 92.5684 13.5996 92.9121C13.4902 93.2559 13.3242 93.5566 13.1016 93.8145C12.8789 94.0684 12.5977 94.2656 12.2578 94.4062C11.9219 94.5469 11.5254 94.6172 11.0684 94.6172C10.7246 94.6172 10.3984 94.5703 10.0898 94.4766C9.78516 94.3789 9.51172 94.2324 9.26953 94.0371C9.03125 93.8379 8.83594 93.5918 8.68359 93.2988C8.53516 93.002 8.44141 92.6543 8.40234 92.2559H9.43359C9.48047 92.5762 9.57422 92.8457 9.71484 93.0645C9.85547 93.2832 10.0391 93.4492 10.2656 93.5625C10.4961 93.6719 10.7637 93.7266 11.0684 93.7266C11.3262 93.7266 11.5547 93.6816 11.7539 93.5918C11.9531 93.502 12.1211 93.373 12.2578 93.2051C12.3945 93.0371 12.498 92.834 12.5684 92.5957C12.6426 92.3574 12.6797 92.0898 12.6797 91.793C12.6797 91.5234 12.6426 91.2734 12.5684 91.043C12.4941 90.8125 12.3828 90.6113 12.2344 90.4395C12.0898 90.2676 11.9121 90.1348 11.7012 90.041C11.4902 89.9434 11.248 89.8945 10.9746 89.8945C10.6113 89.8945 10.3359 89.9434 10.1484 90.041C9.96484 90.1387 9.77539 90.2715 9.58008 90.4395ZM20.3145 89.5547V90.8555C20.3145 91.5547 20.252 92.1445 20.127 92.625C20.002 93.1055 19.8223 93.4922 19.5879 93.7852C19.3535 94.0781 19.0703 94.291 18.7383 94.4238C18.4102 94.5527 18.0391 94.6172 17.625 94.6172C17.2969 94.6172 16.9941 94.5762 16.7168 94.4941C16.4395 94.4121 16.1895 94.2812 15.9668 94.1016C15.748 93.918 15.5605 93.6797 15.4043 93.3867C15.248 93.0938 15.1289 92.7383 15.0469 92.3203C14.9648 91.9023 14.9238 91.4141 14.9238 90.8555V89.5547C14.9238 88.8555 14.9863 88.2695 15.1113 87.7969C15.2402 87.3242 15.4219 86.9453 15.6562 86.6602C15.8906 86.3711 16.1719 86.1641 16.5 86.0391C16.832 85.9141 17.2031 85.8516 17.6133 85.8516C17.9453 85.8516 18.25 85.8926 18.5273 85.9746C18.8086 86.0527 19.0586 86.1797 19.2773 86.3555C19.4961 86.5273 19.6816 86.7578 19.834 87.0469C19.9902 87.332 20.1094 87.6816 20.1914 88.0957C20.2734 88.5098 20.3145 88.9961 20.3145 89.5547ZM19.2246 91.0312V89.373C19.2246 88.9902 19.2012 88.6543 19.1543 88.3652C19.1113 88.0723 19.0469 87.8223 18.9609 87.6152C18.875 87.4082 18.7656 87.2402 18.6328 87.1113C18.5039 86.9824 18.3535 86.8887 18.1816 86.8301C18.0137 86.7676 17.8242 86.7363 17.6133 86.7363C17.3555 86.7363 17.127 86.7852 16.9277 86.8828C16.7285 86.9766 16.5605 87.127 16.4238 87.334C16.291 87.541 16.1895 87.8125 16.1191 88.1484C16.0488 88.4844 16.0137 88.8926 16.0137 89.373V91.0312C16.0137 91.4141 16.0352 91.752 16.0781 92.0449C16.125 92.3379 16.1934 92.5918 16.2832 92.8066C16.373 93.0176 16.4824 93.1914 16.6113 93.3281C16.7402 93.4648 16.8887 93.5664 17.0566 93.6328C17.2285 93.6953 17.418 93.7266 17.625 93.7266C17.8906 93.7266 18.123 93.6758 18.3223 93.5742C18.5215 93.4727 18.6875 93.3145 18.8203 93.0996C18.957 92.8809 19.0586 92.6016 19.125 92.2617C19.1914 91.918 19.2246 91.5078 19.2246 91.0312Z" fill="#333333"/>
<path d="M13.7227 44.2188V44.8281L10.1895 52.75H9.04688L12.5742 45.1094H7.95703V44.2188H13.7227ZM16.3301 48.6895L15.4629 48.4668L15.8906 44.2188H20.2676V45.2207H16.8105L16.5527 47.541C16.709 47.4512 16.9062 47.3672 17.1445 47.2891C17.3867 47.2109 17.6641 47.1719 17.9766 47.1719C18.3711 47.1719 18.7246 47.2402 19.0371 47.377C19.3496 47.5098 19.6152 47.7012 19.834 47.9512C20.0566 48.2012 20.2266 48.502 20.3438 48.8535C20.4609 49.2051 20.5195 49.5977 20.5195 50.0312C20.5195 50.4414 20.4629 50.8184 20.3496 51.1621C20.2402 51.5059 20.0742 51.8066 19.8516 52.0645C19.6289 52.3184 19.3477 52.5156 19.0078 52.6562C18.6719 52.7969 18.2754 52.8672 17.8184 52.8672C17.4746 52.8672 17.1484 52.8203 16.8398 52.7266C16.5352 52.6289 16.2617 52.4824 16.0195 52.2871C15.7812 52.0879 15.5859 51.8418 15.4336 51.5488C15.2852 51.252 15.1914 50.9043 15.1523 50.5059H16.1836C16.2305 50.8262 16.3242 51.0957 16.4648 51.3145C16.6055 51.5332 16.7891 51.6992 17.0156 51.8125C17.2461 51.9219 17.5137 51.9766 17.8184 51.9766C18.0762 51.9766 18.3047 51.9316 18.5039 51.8418C18.7031 51.752 18.8711 51.623 19.0078 51.4551C19.1445 51.2871 19.248 51.084 19.3184 50.8457C19.3926 50.6074 19.4297 50.3398 19.4297 50.043C19.4297 49.7734 19.3926 49.5234 19.3184 49.293C19.2441 49.0625 19.1328 48.8613 18.9844 48.6895C18.8398 48.5176 18.6621 48.3848 18.4512 48.291C18.2402 48.1934 17.998 48.1445 17.7246 48.1445C17.3613 48.1445 17.0859 48.1934 16.8984 48.291C16.7148 48.3887 16.5254 48.5215 16.3301 48.6895Z" fill="#333333"/>
<path d="M5.02148 2.42188V11H3.9375V3.77539L1.75195 4.57227V3.59375L4.85156 2.42188H5.02148ZM13.5645 6.05469V7.35547C13.5645 8.05469 13.502 8.64453 13.377 9.125C13.252 9.60547 13.0723 9.99219 12.8379 10.2852C12.6035 10.5781 12.3203 10.791 11.9883 10.9238C11.6602 11.0527 11.2891 11.1172 10.875 11.1172C10.5469 11.1172 10.2441 11.0762 9.9668 10.9941C9.68945 10.9121 9.43945 10.7812 9.2168 10.6016C8.99805 10.418 8.81055 10.1797 8.6543 9.88672C8.49805 9.59375 8.37891 9.23828 8.29688 8.82031C8.21484 8.40234 8.17383 7.91406 8.17383 7.35547V6.05469C8.17383 5.35547 8.23633 4.76953 8.36133 4.29688C8.49023 3.82422 8.67188 3.44531 8.90625 3.16016C9.14062 2.87109 9.42188 2.66406 9.75 2.53906C10.082 2.41406 10.4531 2.35156 10.8633 2.35156C11.1953 2.35156 11.5 2.39258 11.7773 2.47461C12.0586 2.55273 12.3086 2.67969 12.5273 2.85547C12.7461 3.02734 12.9316 3.25781 13.084 3.54688C13.2402 3.83203 13.3594 4.18164 13.4414 4.5957C13.5234 5.00977 13.5645 5.49609 13.5645 6.05469ZM12.4746 7.53125V5.87305C12.4746 5.49023 12.4512 5.1543 12.4043 4.86523C12.3613 4.57227 12.2969 4.32227 12.2109 4.11523C12.125 3.9082 12.0156 3.74023 11.8828 3.61133C11.7539 3.48242 11.6035 3.38867 11.4316 3.33008C11.2637 3.26758 11.0742 3.23633 10.8633 3.23633C10.6055 3.23633 10.377 3.28516 10.1777 3.38281C9.97852 3.47656 9.81055 3.62695 9.67383 3.83398C9.54102 4.04102 9.43945 4.3125 9.36914 4.64844C9.29883 4.98438 9.26367 5.39258 9.26367 5.87305V7.53125C9.26367 7.91406 9.28516 8.25195 9.32812 8.54492C9.375 8.83789 9.44336 9.0918 9.5332 9.30664C9.62305 9.51758 9.73242 9.69141 9.86133 9.82812C9.99023 9.96484 10.1387 10.0664 10.3066 10.1328C10.4785 10.1953 10.668 10.2266 10.875 10.2266C11.1406 10.2266 11.373 10.1758 11.5723 10.0742C11.7715 9.97266 11.9375 9.81445 12.0703 9.59961C12.207 9.38086 12.3086 9.10156 12.375 8.76172C12.4414 8.41797 12.4746 8.00781 12.4746 7.53125ZM20.3145 6.05469V7.35547C20.3145 8.05469 20.252 8.64453 20.127 9.125C20.002 9.60547 19.8223 9.99219 19.5879 10.2852C19.3535 10.5781 19.0703 10.791 18.7383 10.9238C18.4102 11.0527 18.0391 11.1172 17.625 11.1172C17.2969 11.1172 16.9941 11.0762 16.7168 10.9941C16.4395 10.9121 16.1895 10.7812 15.9668 10.6016C15.748 10.418 15.5605 10.1797 15.4043 9.88672C15.248 9.59375 15.1289 9.23828 15.0469 8.82031C14.9648 8.40234 14.9238 7.91406 14.9238 7.35547V6.05469C14.9238 5.35547 14.9863 4.76953 15.1113 4.29688C15.2402 3.82422 15.4219 3.44531 15.6562 3.16016C15.8906 2.87109 16.1719 2.66406 16.5 2.53906C16.832 2.41406 17.2031 2.35156 17.6133 2.35156C17.9453 2.35156 18.25 2.39258 18.5273 2.47461C18.8086 2.55273 19.0586 2.67969 19.2773 2.85547C19.4961 3.02734 19.6816 3.25781 19.834 3.54688C19.9902 3.83203 20.1094 4.18164 20.1914 4.5957C20.2734 5.00977 20.3145 5.49609 20.3145 6.05469ZM19.2246 7.53125V5.87305C19.2246 5.49023 19.2012 5.1543 19.1543 4.86523C19.1113 4.57227 19.0469 4.32227 18.9609 4.11523C18.875 3.9082 18.7656 3.74023 18.6328 3.61133C18.5039 3.48242 18.3535 3.38867 18.1816 3.33008C18.0137 3.26758 17.8242 3.23633 17.6133 3.23633C17.3555 3.23633 17.127 3.28516 16.9277 3.38281C16.7285 3.47656 16.5605 3.62695 16.4238 3.83398C16.291 4.04102 16.1895 4.3125 16.1191 4.64844C16.0488 4.98438 16.0137 5.39258 16.0137 5.87305V7.53125C16.0137 7.91406 16.0352 8.25195 16.0781 8.54492C16.125 8.83789 16.1934 9.0918 16.2832 9.30664C16.373 9.51758 16.4824 9.69141 16.6113 9.82812C16.7402 9.96484 16.8887 10.0664 17.0566 10.1328C17.2285 10.1953 17.418 10.2266 17.625 10.2266C17.8906 10.2266 18.123 10.1758 18.3223 10.0742C18.5215 9.97266 18.6875 9.81445 18.8203 9.59961C18.957 9.38086 19.0586 9.10156 19.125 8.76172C19.1914 8.41797 19.2246 8.00781 19.2246 7.53125Z" fill="#333333"/>
<path d="M86.457 183.469H87.5527L90.3477 190.424L93.1367 183.469H94.2383L90.7695 192H89.9141L86.457 183.469ZM86.0996 183.469H87.0664L87.2246 188.672V192H86.0996V183.469ZM93.623 183.469H94.5898V192H93.4648V188.672L93.623 183.469ZM99.5527 183.469V192H98.4395V183.469H99.5527ZM102.295 183.469V184.395H95.7031V183.469H102.295ZM108.547 189.287H109.672C109.613 189.826 109.459 190.309 109.209 190.734C108.959 191.16 108.605 191.498 108.148 191.748C107.691 191.994 107.121 192.117 106.438 192.117C105.938 192.117 105.482 192.023 105.072 191.836C104.666 191.648 104.316 191.383 104.023 191.039C103.73 190.691 103.504 190.275 103.344 189.791C103.188 189.303 103.109 188.76 103.109 188.162V187.312C103.109 186.715 103.188 186.174 103.344 185.689C103.504 185.201 103.732 184.783 104.029 184.436C104.33 184.088 104.691 183.82 105.113 183.633C105.535 183.445 106.01 183.352 106.537 183.352C107.182 183.352 107.727 183.473 108.172 183.715C108.617 183.957 108.963 184.293 109.209 184.723C109.459 185.148 109.613 185.643 109.672 186.205H108.547C108.492 185.807 108.391 185.465 108.242 185.18C108.094 184.891 107.883 184.668 107.609 184.512C107.336 184.355 106.979 184.277 106.537 184.277C106.158 184.277 105.824 184.35 105.535 184.494C105.25 184.639 105.01 184.844 104.814 185.109C104.623 185.375 104.479 185.693 104.381 186.064C104.283 186.436 104.234 186.848 104.234 187.301V188.162C104.234 188.58 104.277 188.973 104.363 189.34C104.453 189.707 104.588 190.029 104.768 190.307C104.947 190.584 105.176 190.803 105.453 190.963C105.73 191.119 106.059 191.197 106.438 191.197C106.918 191.197 107.301 191.121 107.586 190.969C107.871 190.816 108.086 190.598 108.23 190.312C108.379 190.027 108.484 189.686 108.547 189.287Z" fill="#333333"/>
<path d="M207.844 183.469H208.939L211.734 190.424L214.523 183.469H215.625L212.156 192H211.301L207.844 183.469ZM207.486 183.469H208.453L208.611 188.672V192H207.486V183.469ZM215.01 183.469H215.977V192H214.852V188.672L215.01 183.469ZM222.51 189.844C222.51 189.645 222.479 189.469 222.416 189.316C222.357 189.16 222.252 189.02 222.1 188.895C221.951 188.77 221.744 188.65 221.479 188.537C221.217 188.424 220.885 188.309 220.482 188.191C220.061 188.066 219.68 187.928 219.34 187.775C219 187.619 218.709 187.441 218.467 187.242C218.225 187.043 218.039 186.814 217.91 186.557C217.781 186.299 217.717 186.004 217.717 185.672C217.717 185.34 217.785 185.033 217.922 184.752C218.059 184.471 218.254 184.227 218.508 184.02C218.766 183.809 219.072 183.645 219.428 183.527C219.783 183.41 220.18 183.352 220.617 183.352C221.258 183.352 221.801 183.475 222.246 183.721C222.695 183.963 223.037 184.281 223.271 184.676C223.506 185.066 223.623 185.484 223.623 185.93H222.498C222.498 185.609 222.43 185.326 222.293 185.08C222.156 184.83 221.949 184.635 221.672 184.494C221.395 184.35 221.043 184.277 220.617 184.277C220.215 184.277 219.883 184.338 219.621 184.459C219.359 184.58 219.164 184.744 219.035 184.951C218.91 185.158 218.848 185.395 218.848 185.66C218.848 185.84 218.885 186.004 218.959 186.152C219.037 186.297 219.156 186.432 219.316 186.557C219.48 186.682 219.688 186.797 219.938 186.902C220.191 187.008 220.494 187.109 220.846 187.207C221.33 187.344 221.748 187.496 222.1 187.664C222.451 187.832 222.74 188.021 222.967 188.232C223.197 188.439 223.367 188.676 223.477 188.941C223.59 189.203 223.646 189.5 223.646 189.832C223.646 190.18 223.576 190.494 223.436 190.775C223.295 191.057 223.094 191.297 222.832 191.496C222.57 191.695 222.256 191.85 221.889 191.959C221.525 192.064 221.119 192.117 220.67 192.117C220.275 192.117 219.887 192.062 219.504 191.953C219.125 191.844 218.779 191.68 218.467 191.461C218.158 191.242 217.91 190.973 217.723 190.652C217.539 190.328 217.447 189.953 217.447 189.527H218.572C218.572 189.82 218.629 190.072 218.742 190.283C218.855 190.49 219.01 190.662 219.205 190.799C219.404 190.936 219.629 191.037 219.879 191.104C220.133 191.166 220.396 191.197 220.67 191.197C221.064 191.197 221.398 191.143 221.672 191.033C221.945 190.924 222.152 190.768 222.293 190.564C222.438 190.361 222.51 190.121 222.51 189.844ZM228.129 188.01H225.967L225.955 187.102H227.918C228.242 187.102 228.525 187.047 228.768 186.938C229.01 186.828 229.197 186.672 229.33 186.469C229.467 186.262 229.535 186.016 229.535 185.73C229.535 185.418 229.475 185.164 229.354 184.969C229.236 184.77 229.055 184.625 228.809 184.535C228.566 184.441 228.258 184.395 227.883 184.395H226.219V192H225.088V183.469H227.883C228.32 183.469 228.711 183.514 229.055 183.604C229.398 183.689 229.689 183.826 229.928 184.014C230.17 184.197 230.354 184.432 230.479 184.717C230.604 185.002 230.666 185.344 230.666 185.742C230.666 186.094 230.576 186.412 230.396 186.697C230.217 186.979 229.967 187.209 229.646 187.389C229.33 187.568 228.959 187.684 228.533 187.734L228.129 188.01ZM228.076 192H225.521L226.16 191.08H228.076C228.436 191.08 228.74 191.018 228.99 190.893C229.244 190.768 229.438 190.592 229.57 190.365C229.703 190.135 229.77 189.863 229.77 189.551C229.77 189.234 229.713 188.961 229.6 188.73C229.486 188.5 229.309 188.322 229.066 188.197C228.824 188.072 228.512 188.01 228.129 188.01H226.518L226.529 187.102H228.732L228.973 187.43C229.383 187.465 229.73 187.582 230.016 187.781C230.301 187.977 230.518 188.227 230.666 188.531C230.818 188.836 230.895 189.172 230.895 189.539C230.895 190.07 230.777 190.52 230.543 190.887C230.312 191.25 229.986 191.527 229.564 191.719C229.143 191.906 228.646 192 228.076 192ZM235.723 184.225L232.898 192H231.744L234.996 183.469H235.74L235.723 184.225ZM238.09 192L235.26 184.225L235.242 183.469H235.986L239.25 192H238.09ZM237.943 188.842V189.768H233.15V188.842H237.943ZM246.955 183.469V192H245.818L241.523 185.42V192H240.393V183.469H241.523L245.836 190.066V183.469H246.955ZM250.09 183.469V192H248.959V183.469H250.09ZM255.24 183.469L251.695 187.447L249.703 189.516L249.516 188.309L251.016 186.656L253.881 183.469H255.24ZM254.15 192L250.992 187.84L251.666 186.943L255.498 192H254.15Z" fill="#333333"/>
<path d="M364.396 183.469V192H363.283V183.469H364.396ZM367.139 183.469V184.395H360.547V183.469H367.139Z" fill="#333333"/>
<path d="M87 107.8H107V175H87V107.8Z" fill="#0263FF"/>
<path d="M221 27.1599H241V175H221V27.1599Z" fill="#FF7723"/>
<path d="M354 74.2H374V175H354V74.2Z" fill="#8E30FF"/>
<path d="M96.7246 96.929V97.8196H90.5605V97.1809L94.3809 91.2688H95.2656L94.3164 92.9797L91.791 96.929H96.7246ZM95.5352 91.2688V99.8H94.4512V91.2688H95.5352ZM103.064 94.8547V96.1555C103.064 96.8547 103.002 97.4446 102.877 97.925C102.752 98.4055 102.572 98.7922 102.338 99.0852C102.104 99.3782 101.82 99.5911 101.488 99.7239C101.16 99.8528 100.789 99.9172 100.375 99.9172C100.047 99.9172 99.7441 99.8762 99.4668 99.7942C99.1895 99.7122 98.9395 99.5813 98.7168 99.4016C98.498 99.218 98.3105 98.9797 98.1543 98.6868C97.998 98.3938 97.8789 98.0383 97.7969 97.6204C97.7148 97.2024 97.6738 96.7141 97.6738 96.1555V94.8547C97.6738 94.1555 97.7363 93.5696 97.8613 93.0969C97.9902 92.6243 98.1719 92.2454 98.4062 91.9602C98.6406 91.6711 98.9219 91.4641 99.25 91.3391C99.582 91.2141 99.9531 91.1516 100.363 91.1516C100.695 91.1516 101 91.1926 101.277 91.2747C101.559 91.3528 101.809 91.4797 102.027 91.6555C102.246 91.8274 102.432 92.0579 102.584 92.3469C102.74 92.6321 102.859 92.9817 102.941 93.3958C103.023 93.8098 103.064 94.2961 103.064 94.8547ZM101.975 96.3313V94.6731C101.975 94.2903 101.951 93.9543 101.904 93.6653C101.861 93.3723 101.797 93.1223 101.711 92.9153C101.625 92.7083 101.516 92.5403 101.383 92.4114C101.254 92.2825 101.104 92.1887 100.932 92.1301C100.764 92.0676 100.574 92.0364 100.363 92.0364C100.105 92.0364 99.877 92.0852 99.6777 92.1829C99.4785 92.2766 99.3105 92.427 99.1738 92.634C99.041 92.8411 98.9395 93.1125 98.8691 93.4485C98.7988 93.7844 98.7637 94.1926 98.7637 94.6731V96.3313C98.7637 96.7141 98.7852 97.052 98.8281 97.345C98.875 97.6379 98.9434 97.8918 99.0332 98.1067C99.123 98.3176 99.2324 98.4915 99.3613 98.6282C99.4902 98.7649 99.6387 98.8665 99.8066 98.9329C99.9785 98.9954 100.168 99.0266 100.375 99.0266C100.641 99.0266 100.873 98.9758 101.072 98.8743C101.271 98.7727 101.438 98.6145 101.57 98.3997C101.707 98.1809 101.809 97.9016 101.875 97.5618C101.941 97.218 101.975 96.8079 101.975 96.3313Z" fill="#333333"/>
<path d="M229.838 16.8514C229.838 17.371 229.717 17.8124 229.475 18.1757C229.236 18.535 228.912 18.8085 228.502 18.996C228.096 19.1835 227.637 19.2772 227.125 19.2772C226.613 19.2772 226.152 19.1835 225.742 18.996C225.332 18.8085 225.008 18.535 224.77 18.1757C224.531 17.8124 224.412 17.371 224.412 16.8514C224.412 16.5116 224.477 16.201 224.605 15.9198C224.738 15.6346 224.924 15.3866 225.162 15.1757C225.404 14.9647 225.689 14.8026 226.018 14.6893C226.35 14.5721 226.715 14.5135 227.113 14.5135C227.637 14.5135 228.104 14.6151 228.514 14.8182C228.924 15.0175 229.246 15.2928 229.48 15.6444C229.719 15.996 229.838 16.3983 229.838 16.8514ZM228.748 16.828C228.748 16.5116 228.68 16.2323 228.543 15.9901C228.406 15.744 228.215 15.5526 227.969 15.4159C227.723 15.2792 227.438 15.2108 227.113 15.2108C226.781 15.2108 226.494 15.2792 226.252 15.4159C226.014 15.5526 225.828 15.744 225.695 15.9901C225.562 16.2323 225.496 16.5116 225.496 16.828C225.496 17.1561 225.561 17.4374 225.689 17.6718C225.822 17.9022 226.01 18.08 226.252 18.205C226.498 18.326 226.789 18.3866 227.125 18.3866C227.461 18.3866 227.75 18.326 227.992 18.205C228.234 18.08 228.42 17.9022 228.549 17.6718C228.682 17.4374 228.748 17.1561 228.748 16.828ZM229.639 12.8495C229.639 13.2635 229.529 13.6366 229.311 13.9686C229.092 14.3007 228.793 14.5624 228.414 14.7538C228.035 14.9452 227.605 15.0409 227.125 15.0409C226.637 15.0409 226.201 14.9452 225.818 14.7538C225.439 14.5624 225.143 14.3007 224.928 13.9686C224.713 13.6366 224.605 13.2635 224.605 12.8495C224.605 12.3534 224.713 11.9315 224.928 11.5839C225.146 11.2362 225.445 10.9706 225.824 10.787C226.203 10.6034 226.635 10.5116 227.119 10.5116C227.607 10.5116 228.041 10.6034 228.42 10.787C228.799 10.9706 229.096 11.2362 229.311 11.5839C229.529 11.9315 229.639 12.3534 229.639 12.8495ZM228.555 12.8671C228.555 12.5819 228.494 12.33 228.373 12.1112C228.252 11.8925 228.084 11.7206 227.869 11.5956C227.654 11.4667 227.404 11.4022 227.119 11.4022C226.834 11.4022 226.584 11.4628 226.369 11.5839C226.158 11.701 225.992 11.869 225.871 12.0878C225.754 12.3065 225.695 12.5663 225.695 12.8671C225.695 13.16 225.754 13.4159 225.871 13.6346C225.992 13.8534 226.16 14.0233 226.375 14.1444C226.59 14.2655 226.84 14.326 227.125 14.326C227.41 14.326 227.658 14.2655 227.869 14.1444C228.084 14.0233 228.252 13.8534 228.373 13.6346C228.494 13.4159 228.555 13.16 228.555 12.8671ZM236.588 16.8514C236.588 17.371 236.467 17.8124 236.225 18.1757C235.986 18.535 235.662 18.8085 235.252 18.996C234.846 19.1835 234.387 19.2772 233.875 19.2772C233.363 19.2772 232.902 19.1835 232.492 18.996C232.082 18.8085 231.758 18.535 231.52 18.1757C231.281 17.8124 231.162 17.371 231.162 16.8514C231.162 16.5116 231.227 16.201 231.355 15.9198C231.488 15.6346 231.674 15.3866 231.912 15.1757C232.154 14.9647 232.439 14.8026 232.768 14.6893C233.1 14.5721 233.465 14.5135 233.863 14.5135C234.387 14.5135 234.854 14.6151 235.264 14.8182C235.674 15.0175 235.996 15.2928 236.23 15.6444C236.469 15.996 236.588 16.3983 236.588 16.8514ZM235.498 16.828C235.498 16.5116 235.43 16.2323 235.293 15.9901C235.156 15.744 234.965 15.5526 234.719 15.4159C234.473 15.2792 234.188 15.2108 233.863 15.2108C233.531 15.2108 233.244 15.2792 233.002 15.4159C232.764 15.5526 232.578 15.744 232.445 15.9901C232.312 16.2323 232.246 16.5116 232.246 16.828C232.246 17.1561 232.311 17.4374 232.439 17.6718C232.572 17.9022 232.76 18.08 233.002 18.205C233.248 18.326 233.539 18.3866 233.875 18.3866C234.211 18.3866 234.5 18.326 234.742 18.205C234.984 18.08 235.17 17.9022 235.299 17.6718C235.432 17.4374 235.498 17.1561 235.498 16.828ZM236.389 12.8495C236.389 13.2635 236.279 13.6366 236.061 13.9686C235.842 14.3007 235.543 14.5624 235.164 14.7538C234.785 14.9452 234.355 15.0409 233.875 15.0409C233.387 15.0409 232.951 14.9452 232.568 14.7538C232.189 14.5624 231.893 14.3007 231.678 13.9686C231.463 13.6366 231.355 13.2635 231.355 12.8495C231.355 12.3534 231.463 11.9315 231.678 11.5839C231.896 11.2362 232.195 10.9706 232.574 10.787C232.953 10.6034 233.385 10.5116 233.869 10.5116C234.357 10.5116 234.791 10.6034 235.17 10.787C235.549 10.9706 235.846 11.2362 236.061 11.5839C236.279 11.9315 236.389 12.3534 236.389 12.8495ZM235.305 12.8671C235.305 12.5819 235.244 12.33 235.123 12.1112C235.002 11.8925 234.834 11.7206 234.619 11.5956C234.404 11.4667 234.154 11.4022 233.869 11.4022C233.584 11.4022 233.334 11.4628 233.119 11.5839C232.908 11.701 232.742 11.869 232.621 12.0878C232.504 12.3065 232.445 12.5663 232.445 12.8671C232.445 13.16 232.504 13.4159 232.621 13.6346C232.742 13.8534 232.91 14.0233 233.125 14.1444C233.34 14.2655 233.59 14.326 233.875 14.326C234.16 14.326 234.408 14.2655 234.619 14.1444C234.834 14.0233 235.002 13.8534 235.123 13.6346C235.244 13.4159 235.305 13.16 235.305 12.8671Z" fill="#333333"/>
<path d="M361.619 57.657H361.713V58.5769H361.619C361.045 58.5769 360.564 58.6707 360.178 58.8582C359.791 59.0417 359.484 59.2898 359.258 59.6023C359.031 59.9109 358.867 60.2585 358.766 60.6453C358.668 61.032 358.619 61.4246 358.619 61.823V63.0769C358.619 63.4558 358.664 63.7917 358.754 64.0847C358.844 64.3738 358.967 64.6179 359.123 64.8171C359.279 65.0164 359.455 65.1667 359.65 65.2683C359.85 65.3699 360.057 65.4207 360.271 65.4207C360.521 65.4207 360.744 65.3738 360.939 65.28C361.135 65.1824 361.299 65.0476 361.432 64.8757C361.568 64.7 361.672 64.4929 361.742 64.2546C361.812 64.0164 361.848 63.7546 361.848 63.4695C361.848 63.2156 361.816 62.9714 361.754 62.7371C361.691 62.4988 361.596 62.2878 361.467 62.1042C361.338 61.9167 361.176 61.7703 360.98 61.6648C360.789 61.5554 360.561 61.5007 360.295 61.5007C359.994 61.5007 359.713 61.575 359.451 61.7234C359.193 61.8679 358.98 62.0593 358.812 62.2976C358.648 62.532 358.555 62.7878 358.531 63.0652L357.957 63.0593C358.012 62.6218 358.113 62.2488 358.262 61.9402C358.414 61.6277 358.602 61.3738 358.824 61.1785C359.051 60.9792 359.303 60.8347 359.58 60.7449C359.861 60.6511 360.158 60.6042 360.471 60.6042C360.896 60.6042 361.264 60.6843 361.572 60.8445C361.881 61.0046 362.135 61.2195 362.334 61.489C362.533 61.7546 362.68 62.0554 362.773 62.3914C362.871 62.7234 362.92 63.0652 362.92 63.4167C362.92 63.8191 362.863 64.196 362.75 64.5476C362.637 64.8992 362.467 65.2078 362.24 65.4734C362.018 65.739 361.742 65.946 361.414 66.0945C361.086 66.2429 360.705 66.3171 360.271 66.3171C359.811 66.3171 359.408 66.2234 359.064 66.0359C358.721 65.8445 358.436 65.5906 358.209 65.2742C357.982 64.9578 357.812 64.6062 357.699 64.2195C357.586 63.8328 357.529 63.4402 357.529 63.0417V62.532C357.529 61.9304 357.59 61.3406 357.711 60.7625C357.832 60.1843 358.041 59.6609 358.338 59.1921C358.639 58.7234 359.055 58.3503 359.586 58.073C360.117 57.7957 360.795 57.657 361.619 57.657ZM369.564 61.2546V62.5554C369.564 63.2546 369.502 63.8445 369.377 64.325C369.252 64.8054 369.072 65.1921 368.838 65.4851C368.604 65.7781 368.32 65.991 367.988 66.1238C367.66 66.2527 367.289 66.3171 366.875 66.3171C366.547 66.3171 366.244 66.2761 365.967 66.1941C365.689 66.1121 365.439 65.9812 365.217 65.8015C364.998 65.6179 364.811 65.3796 364.654 65.0867C364.498 64.7937 364.379 64.4382 364.297 64.0203C364.215 63.6023 364.174 63.114 364.174 62.5554V61.2546C364.174 60.5554 364.236 59.9695 364.361 59.4968C364.49 59.0242 364.672 58.6453 364.906 58.3601C365.141 58.071 365.422 57.864 365.75 57.739C366.082 57.614 366.453 57.5515 366.863 57.5515C367.195 57.5515 367.5 57.5925 367.777 57.6746C368.059 57.7527 368.309 57.8796 368.527 58.0554C368.746 58.2273 368.932 58.4578 369.084 58.7468C369.24 59.032 369.359 59.3816 369.441 59.7957C369.523 60.2097 369.564 60.696 369.564 61.2546ZM368.475 62.7312V61.073C368.475 60.6902 368.451 60.3542 368.404 60.0652C368.361 59.7722 368.297 59.5222 368.211 59.3152C368.125 59.1082 368.016 58.9402 367.883 58.8113C367.754 58.6824 367.604 58.5886 367.432 58.53C367.264 58.4675 367.074 58.4363 366.863 58.4363C366.605 58.4363 366.377 58.4851 366.178 58.5828C365.979 58.6765 365.811 58.8269 365.674 59.0339C365.541 59.241 365.439 59.5125 365.369 59.8484C365.299 60.1843 365.264 60.5925 365.264 61.073V62.7312C365.264 63.114 365.285 63.4519 365.328 63.7449C365.375 64.0378 365.443 64.2917 365.533 64.5066C365.623 64.7175 365.732 64.8914 365.861 65.0281C365.99 65.1648 366.139 65.2664 366.307 65.3328C366.479 65.3953 366.668 65.4265 366.875 65.4265C367.141 65.4265 367.373 65.3757 367.572 65.2742C367.771 65.1726 367.938 65.0144 368.07 64.7996C368.207 64.5808 368.309 64.3015 368.375 63.9617C368.441 63.6179 368.475 63.2078 368.475 62.7312Z" fill="#333333"/>
</svg>
