<svg width="35" height="57" viewBox="0 0 35 57" fill="none" xmlns="http://www.w3.org/2000/svg">
<path d="M23.3668 43L14.9787 28.1847H11.3838V43H3.7583V4.98128H18.0289C20.9702 4.98128 23.4757 5.5078 25.5455 6.56085C27.6153 7.57759 29.1586 8.9756 30.1753 10.7549C31.2284 12.4979 31.7549 14.4587 31.7549 16.6374C31.7549 19.143 31.0287 21.4125 29.5762 23.446C28.1237 25.4431 25.9631 26.823 23.0945 27.5855L32.1906 43H23.3668ZM11.3838 22.4655H17.7566C19.8264 22.4655 21.3696 21.9753 22.3864 20.9949C23.4031 19.9782 23.9115 18.5801 23.9115 16.8008C23.9115 15.0579 23.4031 13.7143 22.3864 12.7702C21.3696 11.7898 19.8264 11.2996 17.7566 11.2996H11.3838V22.4655Z" fill="#34486C"/>
<path d="M0 57C0 53.6863 2.68629 51 6 51H17.5H35C35 54.3137 32.3137 57 29 57H0Z" fill="#34486C"/>
</svg>
