<!-- dev by https://github.com/proksiks -->
<svg width="60" height="31" viewBox="0 0 60 31" fill="none" xmlns="http://www.w3.org/2000/svg">
<path d="M13.1554 19L9.35935 12.11H8.29335V19H3.84735V0.747999H11.3094C12.748 0.747999 13.97 0.999333 14.9754 1.502C15.998 2.00467 16.7607 2.698 17.2634 3.582C17.766 4.44867 18.0174 5.41933 18.0174 6.494C18.0174 7.70733 17.6707 8.79067 16.9774 9.744C16.3014 10.6973 15.296 11.3733 13.9614 11.772L18.1734 19H13.1554ZM8.29335 8.964H11.0494C11.864 8.964 12.4707 8.76467 12.8694 8.366C13.2854 7.96733 13.4934 7.404 13.4934 6.676C13.4934 5.98267 13.2854 5.43667 12.8694 5.038C12.4707 4.63933 11.864 4.44 11.0494 4.44H8.29335V8.964ZM31.3903 19L25.2543 10.94V19H20.8083V0.747999H25.2543V8.756L31.3383 0.747999H36.5643L29.4923 9.692L36.8243 19H31.3903ZM47.5692 19.182C45.8532 19.182 44.2759 18.7833 42.8372 17.986C41.4159 17.1887 40.2805 16.0793 39.4312 14.658C38.5992 13.2193 38.1832 11.6073 38.1832 9.822C38.1832 8.03667 38.5992 6.43333 39.4312 5.012C40.2805 3.59067 41.4159 2.48133 42.8372 1.684C44.2759 0.886666 45.8532 0.488 47.5692 0.488C49.2852 0.488 50.8539 0.886666 52.2752 1.684C53.7139 2.48133 54.8405 3.59067 55.6552 5.012C56.4872 6.43333 56.9032 8.03667 56.9032 9.822C56.9032 11.6073 56.4872 13.2193 55.6552 14.658C54.8232 16.0793 53.6965 17.1887 52.2752 17.986C50.8539 18.7833 49.2852 19.182 47.5692 19.182ZM47.5692 15.126C49.0252 15.126 50.1865 14.6407 51.0532 13.67C51.9372 12.6993 52.3792 11.4167 52.3792 9.822C52.3792 8.21 51.9372 6.92733 51.0532 5.974C50.1865 5.00333 49.0252 4.518 47.5692 4.518C46.0959 4.518 44.9172 4.99467 44.0332 5.948C43.1665 6.90133 42.7332 8.19267 42.7332 9.822C42.7332 11.434 43.1665 12.7253 44.0332 13.696C44.9172 14.6493 46.0959 15.126 47.5692 15.126ZM4.46568 30.0911C3.79773 30.0911 3.19918 29.9827 2.67002 29.7658C2.14086 29.5489 1.7158 29.228 1.39484 28.8029C1.08255 28.3778 0.917732 27.866 0.900382 27.2675H3.26858C3.30327 27.6058 3.42038 27.866 3.6199 28.0482C3.81942 28.2217 4.07966 28.3084 4.40062 28.3084C4.73026 28.3084 4.9905 28.2347 5.18135 28.0872C5.37219 27.9311 5.46761 27.7186 5.46761 27.4496C5.46761 27.2241 5.38954 27.0376 5.23339 26.8901C5.08592 26.7427 4.89942 26.6212 4.67388 26.5258C4.45701 26.4304 4.14472 26.3219 3.73701 26.2005C3.14713 26.0183 2.66568 25.8361 2.29267 25.654C1.91966 25.4718 1.5987 25.2029 1.32978 24.8472C1.06086 24.4916 0.926406 24.0275 0.926406 23.4549C0.926406 22.6048 1.23436 21.9412 1.85026 21.4641C2.46617 20.9783 3.26858 20.7354 4.25749 20.7354C5.26376 20.7354 6.07484 20.9783 6.69074 21.4641C7.30665 21.9412 7.63629 22.6092 7.67966 23.468H5.27243C5.25508 23.173 5.14665 22.9431 4.94713 22.7783C4.74761 22.6048 4.49171 22.5181 4.17942 22.5181C3.9105 22.5181 3.69364 22.5918 3.52882 22.7393C3.364 22.8781 3.28159 23.0819 3.28159 23.3508C3.28159 23.6458 3.42038 23.8757 3.69797 24.0405C3.97556 24.2053 4.4093 24.3831 4.99918 24.574C5.58906 24.7735 6.06617 24.9643 6.4305 25.1465C6.80352 25.3287 7.12448 25.5933 7.39339 25.9402C7.66231 26.2872 7.79677 26.734 7.79677 27.2805C7.79677 27.801 7.66231 28.2737 7.39339 28.6988C7.13315 29.1239 6.75147 29.4622 6.24833 29.7137C5.7452 29.9653 5.15098 30.0911 4.46568 30.0911ZM12.302 22.6482V24.4959H15.2817V26.2135H12.302V28.2173H15.6721V30H10.0769V20.8655H15.6721V22.6482H12.302ZM22.6858 30L20.786 26.5518H20.2526V30H18.0275V20.8655H21.762C22.482 20.8655 23.0935 20.9913 23.5966 21.2429C24.1085 21.4945 24.4901 21.8414 24.7417 22.2839C24.9933 22.7176 25.1191 23.2034 25.1191 23.7412C25.1191 24.3484 24.9456 24.8906 24.5986 25.3677C24.2603 25.8448 23.7571 26.1831 23.0892 26.3827L25.1971 30H22.6858ZM20.2526 24.9773H21.6318C22.0395 24.9773 22.3432 24.8776 22.5427 24.6781C22.7509 24.4786 22.855 24.1966 22.855 23.8323C22.855 23.4853 22.7509 23.212 22.5427 23.0125C22.3432 22.813 22.0395 22.7133 21.6318 22.7133H20.2526V24.9773ZM36.0016 20.8655L32.7616 30H29.977L26.737 20.8655H29.1052L31.3693 27.7619L33.6464 20.8655H36.0016ZM40.0675 20.8655V30H37.8424V20.8655H40.0675ZM42.2134 25.4198C42.2134 24.5176 42.4086 23.7152 42.799 23.0125C43.1893 22.3012 43.7315 21.7504 44.4255 21.36C45.1281 20.961 45.9219 20.7614 46.8067 20.7614C47.891 20.7614 48.8192 21.0477 49.5913 21.6202C50.3633 22.1928 50.8795 22.9735 51.1397 23.9624H48.6934C48.5113 23.5807 48.251 23.2901 47.9127 23.0906C47.5831 22.8911 47.2057 22.7913 46.7807 22.7913C46.0954 22.7913 45.5402 23.0299 45.1151 23.507C44.6901 23.9841 44.4775 24.6217 44.4775 25.4198C44.4775 26.2178 44.6901 26.8554 45.1151 27.3325C45.5402 27.8096 46.0954 28.0482 46.7807 28.0482C47.2057 28.0482 47.5831 27.9484 47.9127 27.7489C48.251 27.5494 48.5113 27.2588 48.6934 26.8771H51.1397C50.8795 27.866 50.3633 28.6467 49.5913 29.2193C48.8192 29.7831 47.891 30.0651 46.8067 30.0651C45.9219 30.0651 45.1281 29.8699 44.4255 29.4795C43.7315 29.0805 43.1893 28.5296 42.799 27.827C42.4086 27.1243 42.2134 26.3219 42.2134 25.4198ZM55.6382 22.6482V24.4959H58.618V26.2135H55.6382V28.2173H59.0083V30H53.4131V20.8655H59.0083V22.6482H55.6382Z" fill="#34486C"/>
</svg>
