<svg width="12" height="12" viewBox="0 0 12 12" fill="none" xmlns="http://www.w3.org/2000/svg">
<path fill-rule="evenodd" clip-rule="evenodd" d="M6 10.8C8.65097 10.8 10.8 8.65097 10.8 6C10.8 3.34903 8.65097 1.2 6 1.2C3.34903 1.2 1.2 3.34903 1.2 6C1.2 8.65097 3.34903 10.8 6 10.8ZM6 12C9.31371 12 12 9.31371 12 6C12 2.68629 9.31371 0 6 0C2.68629 0 0 2.68629 0 6C0 9.31371 2.68629 12 6 12Z" fill="#34486C"/>
<path fill-rule="evenodd" clip-rule="evenodd" d="M5.9999 2.39999C6.33127 2.39999 6.5999 2.66862 6.5999 2.99999V5.62917L8.66823 6.66334C8.96462 6.81153 9.08475 7.17194 8.93656 7.46832C8.78836 7.76471 8.42796 7.88484 8.13157 7.73665L5.73157 6.53665C5.5283 6.43502 5.3999 6.22726 5.3999 5.99999V2.99999C5.3999 2.66862 5.66853 2.39999 5.9999 2.39999Z" fill="#34486C"/>
</svg>
