<svg width="60" height="60" viewBox="0 0 60 60" fill="none" xmlns="http://www.w3.org/2000/svg">
<path d="M30 22.5C28.0109 22.5 26.1032 23.2902 24.6967 24.6967C23.2902 26.1032 22.5 28.0109 22.5 30C22.5 31.9891 23.2902 33.8968 24.6967 35.3033C26.1032 36.7098 28.0109 37.5 30 37.5C31.9891 37.5 33.8968 36.7098 35.3033 35.3033C36.7098 33.8968 37.5 31.9891 37.5 30C37.5 28.0109 36.7098 26.1032 35.3033 24.6967C33.8968 23.2902 31.9891 22.5 30 22.5ZM30 42.5C26.6848 42.5 23.5054 41.183 21.1612 38.8388C18.817 36.4946 17.5 33.3152 17.5 30C17.5 26.6848 18.817 23.5054 21.1612 21.1612C23.5054 18.817 26.6848 17.5 30 17.5C33.3152 17.5 36.4946 18.817 38.8388 21.1612C41.183 23.5054 42.5 26.6848 42.5 30C42.5 33.3152 41.183 36.4946 38.8388 38.8388C36.4946 41.183 33.3152 42.5 30 42.5ZM30 11.25C17.5 11.25 6.825 19.025 2.5 30C6.825 40.975 17.5 48.75 30 48.75C42.5 48.75 53.175 40.975 57.5 30C53.175 19.025 42.5 11.25 30 11.25Z" fill="#34486C"/>
<rect x="50" y="8" width="3" height="60" rx="1.5" transform="rotate(45 50 8)" fill="#34486C"/>
</svg>
