<svg width="36" height="36" viewBox="0 0 36 36" fill="none" xmlns="http://www.w3.org/2000/svg">
<g clip-path="url(#clip0_49_196)">
<path d="M18 0C13.2272 0 8.64563 1.89759 5.27344 5.27203C1.89777 8.64781 0.000935072 13.226 0 18C0 22.772 1.89844 27.3535 5.27344 30.728C8.64563 34.1024 13.2272 36 18 36C22.7728 36 27.3544 34.1024 30.7266 30.728C34.1016 27.3535 36 22.772 36 18C36 13.228 34.1016 8.64647 30.7266 5.27203C27.3544 1.89759 22.7728 0 18 0Z" fill="url(#paint0_linear_49_196)"/>
<path d="M8.14777 17.8098C13.3959 15.5238 16.8946 14.0166 18.644 13.2884C23.6446 11.2092 24.6825 10.848 25.3603 10.8358C25.5093 10.8334 25.8412 10.8703 26.0578 11.0453C26.2378 11.193 26.2884 11.3927 26.3137 11.5329C26.3362 11.6729 26.3671 11.9922 26.3418 12.2413C26.0718 15.0876 24.899 21.9945 24.3028 25.1825C24.0525 26.5314 23.5546 26.9836 23.0737 27.0278C22.0275 27.124 21.2343 26.337 20.2218 25.6736C18.6384 24.6349 17.744 23.9886 16.2056 22.9753C14.4281 21.8041 15.5812 21.1603 16.5937 20.1085C16.8581 19.8331 21.465 15.6439 21.5521 15.2639C21.5634 15.2164 21.5746 15.0392 21.4678 14.9458C21.3637 14.8522 21.209 14.8843 21.0965 14.9096C20.9362 14.9456 18.4078 16.6184 13.5028 19.9279C12.7856 20.4212 12.1359 20.6617 11.5509 20.649C10.9096 20.6353 9.67214 20.2857 8.75245 19.987C7.62745 19.6205 6.73027 19.4267 6.80902 18.8043C6.84839 18.4803 7.29558 18.1487 8.14777 17.8098Z" fill="white"/>
</g>
<defs>
<linearGradient id="paint0_linear_49_196" x1="1800" y1="0" x2="1800" y2="3600" gradientUnits="userSpaceOnUse">
<stop stop-color="#2AABEE"/>
<stop offset="1" stop-color="#229ED9"/>
</linearGradient>
<clipPath id="clip0_49_196">
<rect width="36" height="36" fill="white"/>
</clipPath>
</defs>
</svg>
