<svg width="28" height="28" viewBox="0 0 28 28" xmlns="http://www.w3.org/2000/svg">
<g clip-path="url(#clip0_286_2483)">
<path fill-rule="evenodd" clip-rule="evenodd" d="M14.7813 2.58647L24.698 8.12814C24.9891 8.27347 25.2339 8.49707 25.405 8.77385C25.576 9.05062 25.6665 9.3696 25.6663 9.69497V11.375C25.6663 12.18 25.013 12.8333 24.208 12.8333H23.333V22.1666H24.4997C24.8091 22.1666 25.1058 22.2895 25.3246 22.5083C25.5434 22.7271 25.6663 23.0239 25.6663 23.3333C25.6663 23.6427 25.5434 23.9395 25.3246 24.1583C25.1058 24.3771 24.8091 24.5 24.4997 24.5H3.49967C3.19026 24.5 2.89351 24.3771 2.67472 24.1583C2.45592 23.9395 2.33301 23.6427 2.33301 23.3333C2.33301 23.0239 2.45592 22.7271 2.67472 22.5083C2.89351 22.2895 3.19026 22.1666 3.49967 22.1666H4.66634V12.8333H3.79134C2.98634 12.8333 2.33301 12.18 2.33301 11.375V9.69497C2.33301 9.08597 2.64801 8.52597 3.15667 8.20863L13.2168 2.58647C13.4599 2.4649 13.7279 2.40161 13.9997 2.40161C14.2714 2.40161 14.5383 2.4649 14.7813 2.58647ZM19.833 12.8333H8.16634V22.1666H10.4997V15.1666H12.833V22.1666H15.1663V15.1666H17.4997V22.1666H19.833V12.8333ZM13.9997 6.99997C13.6903 6.99997 13.3935 7.12289 13.1747 7.34168C12.9559 7.56047 12.833 7.85722 12.833 8.16664C12.833 8.47605 12.9559 8.7728 13.1747 8.99159C13.3935 9.21039 13.6903 9.3333 13.9997 9.3333C14.3091 9.3333 14.6058 9.21039 14.8246 8.99159C15.0434 8.7728 15.1663 8.47605 15.1663 8.16664C15.1663 7.85722 15.0434 7.56047 14.8246 7.34168C14.6058 7.12289 14.3091 6.99997 13.9997 6.99997Z"/>
</g>
<defs>
<clipPath id="clip0_286_2483">
<rect width="28" height="28" fill="white"/>
</clipPath>
</defs>
</svg>
