<svg width="28" height="28" viewBox="0 0 28 28" xmlns="http://www.w3.org/2000/svg">
<path d="M19.7753 9.87289L15.6505 13.9977L19.7753 18.1225C19.9941 18.3413 20.117 18.638 20.117 18.9474C20.117 19.2568 19.9941 19.5536 19.7753 19.7724C19.5565 19.9912 19.2597 20.1141 18.9503 20.1141C18.6409 20.1141 18.3442 19.9912 18.1254 19.7724L14.0006 15.6476L9.87579 19.7724C9.657 19.9912 9.36025 20.1141 9.05083 20.1141C8.74142 20.1141 8.44467 19.9912 8.22588 19.7724C8.00708 19.5536 7.88417 19.2568 7.88417 18.9474C7.88417 18.638 8.00708 18.3413 8.22588 18.1225L12.3507 13.9977L8.22588 9.87289C8.00708 9.6541 7.88417 9.35735 7.88417 9.04793C7.88417 8.73851 8.00708 8.44177 8.22588 8.22298C8.44467 8.00418 8.74142 7.88127 9.05083 7.88127C9.36025 7.88127 9.657 8.00418 9.87579 8.22298L14.0006 12.3478L18.1254 8.22298C18.3442 8.00418 18.6409 7.88127 18.9503 7.88127C19.2597 7.88127 19.5565 8.00418 19.7753 8.22298C19.9941 8.44177 20.117 8.73851 20.117 9.04793C20.117 9.35735 19.9941 9.6541 19.7753 9.87289Z"/>
</svg>
