<svg width="28" height="28" viewBox="0 0 28 28" xmlns="http://www.w3.org/2000/svg">
<path d="M21 18.375H22.75V22.75H21V18.375ZM17.5 14H19.25V22.75H17.5V14ZM9.625 22.75C8.4651 22.7486 7.35311 22.2872 6.53294 21.4671C5.71277 20.6469 5.25139 19.5349 5.25 18.375H7C7 18.8942 7.15395 19.4017 7.44239 19.8334C7.73083 20.2651 8.1408 20.6015 8.62046 20.8002C9.10011 20.9989 9.62791 21.0508 10.1371 20.9496C10.6463 20.8483 11.114 20.5983 11.4812 20.2312C11.8483 19.864 12.0983 19.3963 12.1996 18.8871C12.3008 18.3779 12.2489 17.8501 12.0502 17.3705C11.8515 16.8908 11.5151 16.4808 11.0834 16.1924C10.6517 15.904 10.1442 15.75 9.625 15.75V14C10.7853 14 11.8981 14.4609 12.7186 15.2814C13.5391 16.1019 14 17.2147 14 18.375C14 19.5353 13.5391 20.6481 12.7186 21.4686C11.8981 22.2891 10.7853 22.75 9.625 22.75Z" />
<path d="M24.5 1.75H3.5C3.03601 1.75046 2.59116 1.93499 2.26307 2.26307C1.93499 2.59116 1.75046 3.03601 1.75 3.5V24.5C1.75046 24.964 1.93499 25.4088 2.26307 25.7369C2.59116 26.065 3.03601 26.2495 3.5 26.25H24.5C24.9639 26.2493 25.4086 26.0647 25.7367 25.7367C26.0647 25.4086 26.2493 24.9639 26.25 24.5V3.5C26.2495 3.03601 26.065 2.59116 25.7369 2.26307C25.4088 1.93499 24.964 1.75046 24.5 1.75ZM24.5 9.625H12.25V3.5H24.5V9.625ZM10.5 3.5V9.625H3.5V3.5H10.5ZM3.5 24.5V11.375H24.5L24.5018 24.5H3.5Z" />
</svg>
