<svg width="28" height="28" viewBox="0 0 28 28" xmlns="http://www.w3.org/2000/svg">
<path d="M16.8405 13.5625L11.8125 8.45032V13.2344C11.8125 13.3214 11.8471 13.4049 11.9086 13.4664C11.9701 13.5279 12.0536 13.5625 12.1406 13.5625H16.8405Z" />
<path d="M10.0625 14.6563V7.875H3.28125C3.1072 7.875 2.94028 7.94415 2.81721 8.06722C2.69414 8.19029 2.625 8.35721 2.625 8.53125V26.4688C2.625 26.6428 2.69414 26.8097 2.81721 26.9328C2.94028 27.0559 3.1072 27.125 3.28125 27.125H16.8437C17.0178 27.125 17.1847 27.0559 17.3078 26.9328C17.4309 26.8097 17.5 26.6428 17.5 26.4688V15.3125H10.7187C10.5447 15.3125 10.3778 15.2434 10.2547 15.1203C10.1316 14.9972 10.0625 14.8303 10.0625 14.6563ZM20.0156 6.5625H24.7155L19.6875 1.45032V6.23438C19.6875 6.3214 19.7221 6.40486 19.7836 6.4664C19.8451 6.52793 19.9286 6.5625 20.0156 6.5625Z" />
<path d="M18.5938 8.3125C18.4197 8.3125 18.2528 8.24336 18.1297 8.12029C18.0066 7.99722 17.9375 7.8303 17.9375 7.65625V0.875H9.40625C9.2322 0.875 9.06528 0.94414 8.94221 1.06721C8.81914 1.19028 8.75 1.3572 8.75 1.53125V6.125H11.0534C11.3474 6.12618 11.6383 6.18543 11.9094 6.29937C12.1804 6.4133 12.4263 6.57967 12.6328 6.78891L18.6025 12.8592C19.019 13.2818 19.2515 13.8519 19.2495 14.4452V21.875H24.7188C24.8928 21.875 25.0597 21.8059 25.1828 21.6828C25.3059 21.5597 25.375 21.3928 25.375 21.2188V8.3125H18.5938Z" />
</svg>
