<svg width="28" height="28" viewBox="0 0 28 28" xmlns="http://www.w3.org/2000/svg">
<path fill-rule="evenodd" clip-rule="evenodd" d="M14 2.33337C13.6906 2.33337 13.3938 2.45629 13.175 2.67508C12.9562 2.89388 12.8333 3.19062 12.8333 3.50004V5.83337H5.83333C5.21449 5.83337 4.621 6.07921 4.18342 6.51679C3.74583 6.95438 3.5 7.54787 3.5 8.16671V23.3334C3.5 23.9522 3.74583 24.5457 4.18342 24.9833C4.621 25.4209 5.21449 25.6667 5.83333 25.6667H22.1667C22.7855 25.6667 23.379 25.4209 23.8166 24.9833C24.2542 24.5457 24.5 23.9522 24.5 23.3334V8.16671C24.5 7.54787 24.2542 6.95438 23.8166 6.51679C23.379 6.07921 22.7855 5.83337 22.1667 5.83337H15.1667V3.50004C15.1667 3.19062 15.0437 2.89388 14.825 2.67508C14.6062 2.45629 14.3094 2.33337 14 2.33337ZM15.1667 5.83337V16.1327L17.2993 14C17.5181 13.7811 17.8149 13.6581 18.1243 13.658C18.4338 13.6579 18.7307 13.7807 18.9496 13.9995C19.1685 14.2182 19.2915 14.515 19.2917 14.8245C19.2918 15.1339 19.1689 15.4308 18.9502 15.6497L15.0302 19.5685C14.7567 19.8418 14.386 19.9952 13.9994 19.9952C13.6129 19.9952 13.2421 19.8418 12.9687 19.5685L9.04983 15.6497C8.94151 15.5413 8.85561 15.4126 8.79701 15.271C8.73842 15.1295 8.70829 14.9777 8.70835 14.8245C8.7084 14.6712 8.73864 14.5195 8.79733 14.3779C8.85602 14.2364 8.94202 14.1078 9.05042 13.9995C9.15881 13.8911 9.28748 13.8052 9.42908 13.7466C9.57067 13.688 9.72242 13.6579 9.87566 13.658C10.0289 13.658 10.1806 13.6883 10.3222 13.747C10.4637 13.8056 10.5923 13.8916 10.7007 14L12.8333 16.1327V5.83337H15.1667Z" />
</svg>
