<svg width="23" height="23" viewBox="0 0 23 23" xmlns="http://www.w3.org/2000/svg">
<g clip-path="url(#clip0_286_1001)">
<path d="M0 16.4985V19.9229H9.13173V17.7655H2.16879V16.4985C2.16879 15.7679 5.74158 14.1014 9.13173 14.1014C10.2275 14.1128 11.3119 14.2612 12.3621 14.5352L14.0971 12.8001C12.4991 12.2636 10.8439 11.9669 9.13173 11.9326C6.08401 11.9326 0 13.4508 0 16.4985ZM9.13173 1.65942C6.60909 1.65942 4.56587 3.70265 4.56587 6.22529C4.56587 8.74793 6.60909 10.7912 9.13173 10.7912C11.6544 10.7912 13.6976 8.74793 13.6976 6.22529C13.6976 3.70265 11.6544 1.65942 9.13173 1.65942ZM9.13173 8.50822C7.87612 8.50822 6.8488 7.49232 6.8488 6.22529C6.8488 4.95826 7.87612 3.94236 9.13173 3.94236C10.3873 3.94236 11.4147 4.96968 11.4147 6.22529C11.4147 7.4809 10.3988 8.50822 9.13173 8.50822ZM22.4869 12.3321L21.3454 13.4736L19.0054 11.1907L20.1469 10.0492C20.2642 9.93417 20.422 9.86974 20.5863 9.86974C20.7507 9.86974 20.9085 9.93417 21.0258 10.0492L22.4869 11.5103C22.7266 11.75 22.7266 12.1495 22.4869 12.3892M11.4147 18.7129L18.3319 11.7956L20.672 14.0786L13.8232 21.0073H11.4147V18.7129Z" />
</g>
<defs>
<clipPath id="clip0_286_1001">
<rect width="22.6667" height="22.6667" fill="white"/>
</clipPath>
</defs>
</svg>
