<svg width="28" height="28" viewBox="0 0 28 28" xmlns="http://www.w3.org/2000/svg">
<path d="M10.71 9.70644L13 7.40586V16.9983C13 17.2635 13.1054 17.518 13.2929 17.7055C13.4804 17.8931 13.7348 17.9985 14 17.9985C14.2652 17.9985 14.5196 17.8931 14.7071 17.7055C14.8946 17.518 15 17.2635 15 16.9983V7.40586L17.29 9.70644C17.383 9.80019 17.4936 9.8746 17.6154 9.92538C17.7373 9.97616 17.868 10.0023 18 10.0023C18.132 10.0023 18.2627 9.97616 18.3846 9.92538C18.5064 9.8746 18.617 9.80019 18.71 9.70644C18.8037 9.61345 18.8781 9.50282 18.9289 9.38093C18.9797 9.25904 19.0058 9.1283 19.0058 8.99626C19.0058 8.86421 18.9797 8.73348 18.9289 8.61159C18.8781 8.4897 18.8037 8.37907 18.71 8.28608L14.71 4.28508C14.6149 4.19402 14.5028 4.12264 14.38 4.07503C14.1365 3.97499 13.8635 3.97499 13.62 4.07503C13.4972 4.12264 13.3851 4.19402 13.29 4.28508L9.29 8.28608C9.19676 8.37934 9.1228 8.49006 9.07234 8.61191C9.02188 8.73377 8.99591 8.86437 8.99591 8.99626C8.99591 9.12815 9.02188 9.25875 9.07234 9.3806C9.1228 9.50246 9.19676 9.61317 9.29 9.70644C9.38324 9.7997 9.49393 9.87368 9.61575 9.92415C9.73757 9.97462 9.86814 10.0006 10 10.0006C10.1319 10.0006 10.2624 9.97462 10.3842 9.92415C10.5061 9.87368 10.6168 9.7997 10.71 9.70644ZM23 15.998C22.7348 15.998 22.4804 16.1034 22.2929 16.291C22.1054 16.4786 22 16.733 22 16.9983V20.9993C22 21.2645 21.8946 21.519 21.7071 21.7065C21.5196 21.8941 21.2652 21.9995 21 21.9995H7C6.73478 21.9995 6.48043 21.8941 6.29289 21.7065C6.10536 21.519 6 21.2645 6 20.9993V16.9983C6 16.733 5.89464 16.4786 5.70711 16.291C5.51957 16.1034 5.26522 15.998 5 15.998C4.73478 15.998 4.48043 16.1034 4.29289 16.291C4.10536 16.4786 4 16.733 4 16.9983V20.9993C4 21.7951 4.31607 22.5584 4.87868 23.1211C5.44129 23.6839 6.20435 24 7 24H21C21.7956 24 22.5587 23.6839 23.1213 23.1211C23.6839 22.5584 24 21.7951 24 20.9993V16.9983C24 16.733 23.8946 16.4786 23.7071 16.291C23.5196 16.1034 23.2652 15.998 23 15.998Z" />
</svg>
