<svg width="28" height="28" viewBox="0 0 28 28" xmlns="http://www.w3.org/2000/svg">
<path d="M16.334 14V23.1933C16.3806 23.5433 16.264 23.9167 15.9956 24.1617C15.8877 24.2698 15.7595 24.3556 15.6184 24.4142C15.4772 24.4727 15.3259 24.5028 15.1731 24.5028C15.0203 24.5028 14.869 24.4727 14.7279 24.4142C14.5868 24.3556 14.4586 24.2698 14.3506 24.1617L12.0056 21.8167C11.8784 21.6923 11.7816 21.5401 11.723 21.3722C11.6643 21.2042 11.6452 21.0249 11.6673 20.8483V14H11.6323L4.91231 5.39C4.72285 5.14679 4.63736 4.83847 4.67453 4.53242C4.71169 4.22637 4.86848 3.94747 5.11064 3.75667C5.33231 3.59333 5.57731 3.5 5.83397 3.5H22.1673C22.424 3.5 22.669 3.59333 22.8906 3.75667C23.1328 3.94747 23.2896 4.22637 23.3268 4.53242C23.3639 4.83847 23.2784 5.14679 23.089 5.39L16.369 14H16.334Z"/>
</svg>
