<svg width="28" height="28" viewBox="0 0 28 28" xmlns="http://www.w3.org/2000/svg">
<path d="M22.1667 3.5H5.83333C4.55 3.5 3.5 4.55 3.5 5.83333V22.1667C3.5 23.45 4.55 24.5 5.83333 24.5H22.1667C23.45 24.5 24.5 23.45 24.5 22.1667V5.83333C24.5 4.55 23.45 3.5 22.1667 3.5ZM8.16667 8.16667H10.5V10.5H8.16667V8.16667ZM8.16667 12.8333H10.5V15.1667H8.16667V12.8333ZM8.16667 17.5H10.5V19.8333H8.16667V17.5ZM19.8333 19.8333H12.8333V17.5H19.8333V19.8333ZM19.8333 15.1667H12.8333V12.8333H19.8333V15.1667ZM19.8333 10.5H12.8333V8.16667H19.8333V10.5Z" />
</svg>
