<svg width="28" height="28" viewBox="0 0 28 28" fill="none" xmlns="http://www.w3.org/2000/svg">
<path d="M2.33301 21.0001V24.5001C2.33301 25.2001 2.79967 25.6668 3.49967 25.6668H8.16634V22.1668H11.6663V18.6668H13.9997L15.633 17.0334C17.2545 17.5983 19.0196 17.5961 20.6397 17.0273C22.2598 16.4585 23.6389 15.3567 24.5514 13.9023C25.4639 12.4478 25.8558 10.7266 25.663 9.02047C25.4701 7.31429 24.704 5.72407 23.4898 4.50994C22.2757 3.29581 20.6855 2.52965 18.9793 2.33681C17.2731 2.14397 15.552 2.53585 14.0975 3.44835C12.643 4.36086 11.5413 5.73996 10.9725 7.36004C10.4037 8.98013 10.4015 10.7453 10.9663 12.3668L2.33301 21.0001Z" fill="white" stroke="#F75D5D" stroke-width="2" stroke-linecap="round" stroke-linejoin="round"/>
<path d="M19.2493 9.33341C19.5715 9.33341 19.8327 9.07225 19.8327 8.75008C19.8327 8.42792 19.5715 8.16675 19.2493 8.16675C18.9272 8.16675 18.666 8.42792 18.666 8.75008C18.666 9.07225 18.9272 9.33341 19.2493 9.33341Z" stroke="#F75D5D" stroke-width="3" stroke-linecap="round" stroke-linejoin="round"/>
</svg>
