<svg width="24" height="24" viewBox="0 0 24 24" xmlns="http://www.w3.org/2000/svg">
<path d="M10.4865 15.4225C10.3408 15.5734 10.2601 15.7755 10.262 15.9852C10.2638 16.195 10.3479 16.3956 10.4962 16.544C10.6446 16.6923 10.8452 16.7764 11.055 16.7782C11.2647 16.7801 11.4668 16.6994 11.6177 16.5537L15.8849 12.2705C15.9221 12.2333 15.9517 12.1892 15.9719 12.1406C15.992 12.092 16.0024 12.0399 16.0024 11.9873C16.0024 11.9347 15.992 11.8826 15.9719 11.834C15.9517 11.7854 15.9221 11.7413 15.8849 11.7041L11.6177 7.4225C11.4668 7.27677 11.2647 7.19614 11.055 7.19796C10.8452 7.19978 10.6446 7.28392 10.4962 7.43224C10.3479 7.58057 10.2638 7.78122 10.262 7.99098C10.2601 8.20073 10.3408 8.40282 10.4865 8.5537L13.1201 11.2001H2.4001C2.18792 11.2001 1.98444 11.2844 1.83441 11.4344C1.68438 11.5844 1.6001 11.7879 1.6001 12.0001C1.6001 12.2123 1.68438 12.4158 1.83441 12.5658C1.98444 12.7158 2.18792 12.8001 2.4001 12.8001H13.1201L10.4865 15.4225ZM19.2001 1.6001H8.8001C8.58792 1.6001 8.38444 1.68438 8.23441 1.83441C8.08438 1.98444 8.0001 2.18792 8.0001 2.4001C8.0001 2.61227 8.08438 2.81575 8.23441 2.96578C8.38444 3.11581 8.58792 3.2001 8.8001 3.2001H18.4001C18.6123 3.2001 18.8158 3.28438 18.9658 3.43441C19.1158 3.58444 19.2001 3.78792 19.2001 4.0001V20.0001C19.2001 20.2123 19.1158 20.4158 18.9658 20.5658C18.8158 20.7158 18.6123 20.8001 18.4001 20.8001H8.4001C8.18792 20.8001 7.98444 20.8844 7.83441 21.0344C7.68438 21.1844 7.6001 21.3879 7.6001 21.6001C7.6001 21.8123 7.68438 22.0158 7.83441 22.1658C7.98444 22.3158 8.18792 22.4001 8.4001 22.4001H19.2001C19.6244 22.4001 20.0314 22.2315 20.3315 21.9315C20.6315 21.6314 20.8001 21.2244 20.8001 20.8001V3.2001C20.8001 2.77575 20.6315 2.36879 20.3315 2.06873C20.0314 1.76867 19.6244 1.6001 19.2001 1.6001Z"/>
</svg>
