<svg width="23" height="23" viewBox="0 0 23 23" xmlns="http://www.w3.org/2000/svg">
<g clip-path="url(#clip0_286_996)">
<path d="M10.7195 15.2844C10.5601 15.4512 10.4719 15.6747 10.4739 15.9066C10.4759 16.1386 10.5679 16.3604 10.7302 16.5245C10.8924 16.6885 11.1119 16.7815 11.3413 16.7835C11.5707 16.7855 11.7917 16.6964 11.9567 16.5352L16.624 11.799C16.6647 11.7579 16.6971 11.7091 16.7191 11.6554C16.7412 11.6016 16.7525 11.544 16.7525 11.4858C16.7525 11.4277 16.7412 11.3701 16.7191 11.3163C16.6971 11.2626 16.6647 11.2138 16.624 11.1727L11.9567 6.43823C11.7917 6.27709 11.5707 6.18793 11.3413 6.18994C11.1119 6.19196 10.8924 6.28499 10.7302 6.44901C10.5679 6.61302 10.4759 6.83489 10.4739 7.06684C10.4719 7.29878 10.5601 7.52224 10.7195 7.68908L13.6 10.6154H1.875C1.64294 10.6154 1.42038 10.7086 1.25628 10.8745C1.09219 11.0404 1 11.2654 1 11.5C1 11.7346 1.09219 11.9596 1.25628 12.1255C1.42038 12.2914 1.64294 12.3846 1.875 12.3846H13.6L10.7195 15.2844ZM20.25 0H8.875C8.64294 0 8.42038 0.0932002 8.25628 0.259098C8.09219 0.424995 8 0.650001 8 0.884615C8 1.11923 8.09219 1.34424 8.25628 1.51013C8.42038 1.67603 8.64294 1.76923 8.875 1.76923H19.375C19.6071 1.76923 19.8296 1.86243 19.9937 2.02833C20.1578 2.19423 20.25 2.41923 20.25 2.65385V20.3462C20.25 20.5808 20.1578 20.8058 19.9937 20.9717C19.8296 21.1376 19.6071 21.2308 19.375 21.2308H8.4375C8.20544 21.2308 7.98288 21.324 7.81878 21.4899C7.65469 21.6558 7.5625 21.8808 7.5625 22.1154C7.5625 22.35 7.65469 22.575 7.81878 22.7409C7.98288 22.9068 8.20544 23 8.4375 23H20.25C20.7141 23 21.1592 22.8136 21.4874 22.4818C21.8156 22.15 22 21.7 22 21.2308V1.76923C22 1.3 21.8156 0.849991 21.4874 0.518196C21.1592 0.1864 20.7141 0 20.25 0Z" />
</g>
<defs>
<clipPath id="clip0_286_996">
<rect width="22.6667" height="22.6667" fill="white"/>
</clipPath>
</defs>
</svg>
