<svg width="28" height="29" viewBox="0 0 28 29" xmlns="http://www.w3.org/2000/svg">
<path d="M22.7036 21.7895L18.7507 17.8352C19.9359 16.2908 20.4893 14.3534 20.2985 12.416C20.1077 10.4787 19.1871 8.68641 17.7235 7.40282C16.2598 6.11923 14.3627 5.44043 12.4169 5.50411C10.4711 5.56778 8.62243 6.36918 7.24582 7.74572C5.86922 9.12226 5.06779 10.9709 5.00411 12.9166C4.94043 14.8622 5.61926 16.7593 6.90291 18.2229C8.18656 19.6865 9.9789 20.607 11.9163 20.7978C13.8538 20.9886 15.7913 20.4352 17.3357 19.2501L21.2919 23.207C21.3848 23.2999 21.4951 23.3736 21.6165 23.4238C21.7379 23.4741 21.868 23.5 21.9994 23.5C22.1308 23.5 22.2609 23.4741 22.3823 23.4238C22.5037 23.3736 22.614 23.2999 22.7069 23.207C22.7999 23.114 22.8736 23.0038 22.9238 22.8824C22.9741 22.761 23 22.6309 23 22.4995C23 22.3681 22.9741 22.238 22.9238 22.1166C22.8736 21.9952 22.7999 21.8849 22.7069 21.792L22.7036 21.7895ZM7.01446 13.1742C7.01446 12.0548 7.34641 10.9605 7.96835 10.0297C8.59028 9.09899 9.47426 8.37357 10.5085 7.94519C11.5427 7.51681 12.6808 7.40473 13.7787 7.62312C14.8767 7.8415 15.8852 8.38054 16.6768 9.17208C17.4683 9.96361 18.0074 10.9721 18.2258 12.07C18.4442 13.1679 18.3321 14.3059 17.9037 15.3401C17.4753 16.3742 16.7499 17.2582 15.8191 17.8801C14.8883 18.502 13.794 18.8339 12.6745 18.8339C11.1738 18.8324 9.73508 18.2356 8.67395 17.1745C7.61282 16.1134 7.016 14.6747 7.01446 13.1742Z"/>
</svg>
