<svg width="28" height="28" viewBox="0 0 28 28" xmlns="http://www.w3.org/2000/svg">
<g clip-path="url(#clip0_870_21)">
<path d="M14 0C21.4788 0 28 6.174 28 13.3C28 20.3056 21.6258 25.8188 14 25.8188C12.369 25.8197 10.7481 25.5617 9.198 25.0544C8.5484 25.6844 8.3258 25.8986 6.9468 27.2286C5.9528 27.979 5.0176 28.2338 4.1818 27.7606C3.339 27.2846 3.0856 26.3578 3.2578 25.137L3.8178 21.8904C1.386 19.6028 0 16.5788 0 13.3C0 6.174 6.5198 0 14 0ZM14 1.96C7.5796 1.96 1.96 7.28 1.96 13.3C1.96 16.163 3.2368 18.7992 5.488 20.762L5.516 20.7858L5.9318 21.147L5.838 21.693L5.6448 22.8186L5.593 23.1182L5.194 25.4394C5.17047 25.5957 5.15644 25.7532 5.152 25.9112V26.0442C5.152 26.0512 5.1506 26.054 5.1492 26.0554C5.159 26.0414 5.3494 25.9812 5.6756 25.7432L8.7136 22.7948L9.2932 23.0132C10.7988 23.575 12.393 23.8619 14 23.8602C20.6024 23.8602 26.04 19.1562 26.04 13.3C26.04 7.2814 20.4204 1.96 14 1.96ZM7.3178 10.9382C7.59984 10.9279 7.88107 10.9746 8.14467 11.0754C8.40828 11.1762 8.64886 11.3291 8.85203 11.525C9.05521 11.7209 9.21682 11.9557 9.3272 12.2155C9.43758 12.4752 9.49447 12.7546 9.49447 13.0368C9.49447 13.319 9.43758 13.5984 9.3272 13.8581C9.21682 14.1179 9.05521 14.3527 8.85203 14.5486C8.64886 14.7445 8.40828 14.8974 8.14467 14.9982C7.88107 15.0991 7.59984 15.1457 7.3178 15.1354C6.77448 15.1156 6.26004 14.8858 5.88268 14.4944C5.50532 14.103 5.29447 13.5805 5.29447 13.0368C5.29447 12.4931 5.50532 11.9706 5.88268 11.5792C6.26004 11.1878 6.77448 10.958 7.3178 10.9382ZM14.315 10.9382C14.597 10.9279 14.8783 10.9746 15.1419 11.0754C15.4055 11.1762 15.6461 11.3291 15.8492 11.525C16.0524 11.7209 16.214 11.9557 16.3244 12.2155C16.4348 12.4752 16.4917 12.7546 16.4917 13.0368C16.4917 13.319 16.4348 13.5984 16.3244 13.8581C16.214 14.1179 16.0524 14.3527 15.8492 14.5486C15.6461 14.7445 15.4055 14.8974 15.1419 14.9982C14.8783 15.0991 14.597 15.1457 14.315 15.1354C13.7717 15.1156 13.2572 14.8858 12.8799 14.4944C12.5025 14.103 12.2917 13.5805 12.2917 13.0368C12.2917 12.4931 12.5025 11.9706 12.8799 11.5792C13.2572 11.1878 13.7717 10.958 14.315 10.9382ZM21.3108 10.9382C21.5928 10.9279 21.8741 10.9746 22.1377 11.0754C22.4013 11.1762 22.6419 11.3291 22.845 11.525C23.0482 11.7209 23.2098 11.9557 23.3202 12.2155C23.4306 12.4752 23.4875 12.7546 23.4875 13.0368C23.4875 13.319 23.4306 13.5984 23.3202 13.8581C23.2098 14.1179 23.0482 14.3527 22.845 14.5486C22.6419 14.7445 22.4013 14.8974 22.1377 14.9982C21.8741 15.0991 21.5928 15.1457 21.3108 15.1354C20.7675 15.1156 20.253 14.8858 19.8757 14.4944C19.4983 14.103 19.2875 13.5805 19.2875 13.0368C19.2875 12.4931 19.4983 11.9706 19.8757 11.5792C20.253 11.1878 20.7675 10.958 21.3108 10.9382Z"/>
</g>
<defs>
<clipPath id="clip0_870_21">
<rect width="28" height="28" fill="white"/>
</clipPath>
</defs>
</svg>
