<svg width="28" height="28" viewBox="0 0 28 28"  xmlns="http://www.w3.org/2000/svg">
<path fill-rule="evenodd" clip-rule="evenodd" d="M14.0603 1.45837H13.939C12.8902 1.45837 12.0163 1.45837 11.3233 1.55171C10.5907 1.64971 9.92917 1.86671 9.39834 2.39754C8.86634 2.92954 8.64934 3.59104 8.55134 4.32254C8.48484 4.82071 8.465 6.00954 8.46034 7.02921C6.10134 7.10737 4.68384 7.38271 3.70034 8.36737C2.33301 9.73354 2.33301 11.9339 2.33301 16.3334C2.33301 20.7329 2.33301 22.9332 3.70034 24.2994C5.06651 25.6667 7.26684 25.6667 11.6663 25.6667H16.333C20.7325 25.6667 22.9328 25.6667 24.299 24.2994C25.6663 22.9332 25.6663 20.7329 25.6663 16.3334C25.6663 11.9339 25.6663 9.73354 24.299 8.36737C23.3155 7.38271 21.898 7.10737 19.539 7.03037C19.5343 6.00954 19.5157 4.82071 19.448 4.32371C19.35 3.59104 19.133 2.92954 18.601 2.39871C18.0702 1.86671 17.4087 1.64971 16.676 1.55171C15.983 1.45837 15.108 1.45837 14.0603 1.45837ZM17.789 7.00237C17.7832 6.01421 17.7668 4.95137 17.7143 4.55587C17.6408 4.01804 17.516 3.78704 17.3643 3.63537C17.2127 3.48371 16.9817 3.35887 16.4427 3.28537C15.8803 3.21071 15.1243 3.20837 13.9997 3.20837C12.875 3.20837 12.119 3.21071 11.5555 3.28654C11.0177 3.35887 10.7867 3.48371 10.635 3.63654C10.4833 3.78821 10.3585 4.01804 10.285 4.55587C10.2325 4.95254 10.215 6.01421 10.2103 7.00237C10.6665 7.00004 11.153 7.00004 11.6663 7.00004H16.333C16.8475 7.00004 17.3328 7.00004 17.789 7.00237ZM13.9997 10.7917C14.2317 10.7917 14.4543 10.8839 14.6184 11.048C14.7825 11.2121 14.8747 11.4346 14.8747 11.6667V11.6784C16.1452 11.998 17.208 13.0002 17.208 14.3885C17.208 14.6206 17.1158 14.8432 16.9517 15.0073C16.7876 15.1714 16.5651 15.2635 16.333 15.2635C16.1009 15.2635 15.8784 15.1714 15.7143 15.0073C15.5502 14.8432 15.458 14.6206 15.458 14.3885C15.458 13.9405 14.961 13.3199 13.9997 13.3199C13.0383 13.3199 12.5413 13.9405 12.5413 14.3885C12.5413 14.8365 13.0383 15.4584 13.9997 15.4584C15.6155 15.4584 17.208 16.5784 17.208 18.2782C17.208 19.6665 16.1452 20.6675 14.8747 20.9884V21C14.8747 21.2321 14.7825 21.4547 14.6184 21.6188C14.4543 21.7829 14.2317 21.875 13.9997 21.875C13.7676 21.875 13.545 21.7829 13.3809 21.6188C13.2169 21.4547 13.1247 21.2321 13.1247 21V20.9884C11.8542 20.6687 10.7913 19.6665 10.7913 18.2782C10.7913 18.0461 10.8835 17.8236 11.0476 17.6595C11.2117 17.4954 11.4343 17.4032 11.6663 17.4032C11.8984 17.4032 12.121 17.4954 12.2851 17.6595C12.4491 17.8236 12.5413 18.0461 12.5413 18.2782C12.5413 18.7262 13.0383 19.3469 13.9997 19.3469C14.961 19.3469 15.458 18.7262 15.458 18.2782C15.458 17.8302 14.961 17.2084 13.9997 17.2084C12.3838 17.2084 10.7913 16.0884 10.7913 14.3885C10.7913 13.0002 11.8542 11.998 13.1247 11.6784V11.6667C13.1247 11.4346 13.2169 11.2121 13.3809 11.048C13.545 10.8839 13.7676 10.7917 13.9997 10.7917Z" />
</svg>
