<svg width="28" height="28" viewBox="0 0 28 28" fill="none" xmlns="http://www.w3.org/2000/svg">
<path d="M18.667 18.6667C18.667 17.3775 15.0107 16.3334 10.5003 16.3334M18.667 18.6667C18.667 19.9559 15.0107 21 10.5003 21C5.98999 21 2.33366 19.9559 2.33366 18.6667M18.667 18.6667V24.4265C18.667 25.7554 15.0107 26.8334 10.5003 26.8334C5.98999 26.8334 2.33366 25.7565 2.33366 24.4265V18.6667M18.667 18.6667C23.1283 18.6667 26.8337 17.5152 26.8337 16.3334V4.66671M10.5003 16.3334C5.98999 16.3334 2.33366 17.3775 2.33366 18.6667M10.5003 16.3334C5.34599 16.3334 1.16699 15.1819 1.16699 14V8.16671M10.5003 5.83337C5.34599 5.83337 1.16699 6.87754 1.16699 8.16671M1.16699 8.16671C1.16699 9.45587 5.34599 10.5 10.5003 10.5C10.5003 11.6819 14.2955 12.8334 18.7568 12.8334C23.217 12.8334 26.8337 11.6819 26.8337 10.5M26.8337 4.66671C26.8337 3.37754 23.217 2.33337 18.7568 2.33337C14.2955 2.33337 10.68 3.37754 10.68 4.66671M26.8337 4.66671C26.8337 5.95587 23.217 7.00004 18.7568 7.00004C14.2967 7.00004 10.68 5.95587 10.68 4.66671M10.68 4.66671V16.527" stroke="#34486C" stroke-width="2"/>
</svg>
