<svg width="28" height="28" viewBox="0 0 28 28" xmlns="http://www.w3.org/2000/svg">
<path d="M17.5 9.33333H17.5117H17.5ZM3.5 7C3.5 6.07174 3.86875 5.1815 4.52513 4.52513C5.1815 3.86875 6.07174 3.5 7 3.5H21C21.9283 3.5 22.8185 3.86875 23.4749 4.52513C24.1313 5.1815 24.5 6.07174 24.5 7V21C24.5 21.9283 24.1313 22.8185 23.4749 23.4749C22.8185 24.1313 21.9283 24.5 21 24.5H7C6.07174 24.5 5.1815 24.1313 4.52513 23.4749C3.86875 22.8185 3.5 21.9283 3.5 21V7Z" fill="white"/>
<path d="M17.5 9.33333H17.5117M3.5 7C3.5 6.07174 3.86875 5.1815 4.52513 4.52513C5.1815 3.86875 6.07174 3.5 7 3.5H21C21.9283 3.5 22.8185 3.86875 23.4749 4.52513C24.1313 5.1815 24.5 6.07174 24.5 7V21C24.5 21.9283 24.1313 22.8185 23.4749 23.4749C22.8185 24.1313 21.9283 24.5 21 24.5H7C6.07174 24.5 5.1815 24.1313 4.52513 23.4749C3.86875 22.8185 3.5 21.9283 3.5 21V7Z" stroke="#5D6AF7" stroke-width="2" stroke-linecap="round" stroke-linejoin="round"/>
<path d="M3.5 18.6667L9.33333 12.8334C10.416 11.7915 11.7507 11.7915 12.8333 12.8334L18.6667 18.6667" fill="white"/>
<path d="M3.5 18.6667L9.33333 12.8334C10.416 11.7915 11.7507 11.7915 12.8333 12.8334L18.6667 18.6667" stroke="#5D6AF7" stroke-width="2" stroke-linecap="round" stroke-linejoin="round"/>
<path d="M16.333 16.3333L17.4997 15.1666C18.5823 14.1248 19.917 14.1248 20.9997 15.1666L24.4997 18.6666" fill="white"/>
<path d="M16.333 16.3333L17.4997 15.1666C18.5823 14.1248 19.917 14.1248 20.9997 15.1666L24.4997 18.6666" stroke="#5D6AF7" stroke-width="2" stroke-linecap="round" stroke-linejoin="round"/>
</svg>
