<svg width="28" height="28" viewBox="0 0 28 28" xmlns="http://www.w3.org/2000/svg">
<path d="M8.43418 21.2917C7.1978 21.2957 6.01034 20.809 5.13251 19.9383C4.24134 18.9916 3.75982 17.7313 3.79258 16.4315C3.82535 15.1317 4.36976 13.8973 5.30751 12.9967L9.69418 8.575C10.6477 7.59073 11.9523 7.02439 13.3225 7C13.938 7.0041 14.5466 7.12991 15.1132 7.37018C15.6798 7.61046 16.1934 7.96045 16.6242 8.4C17.5275 9.35233 18.0163 10.624 17.9835 11.9362C17.9507 13.2484 17.3989 14.494 16.4492 15.4L14.9792 16.87C14.8991 16.956 14.8025 17.0249 14.6951 17.0727C14.5878 17.1206 14.4719 17.1463 14.3545 17.1484C14.237 17.1504 14.1203 17.1288 14.0113 17.0848C13.9024 17.0408 13.8034 16.9753 13.7203 16.8922C13.6372 16.8091 13.5717 16.7101 13.5277 16.6012C13.4837 16.4922 13.4621 16.3755 13.4642 16.2581C13.4662 16.1406 13.4919 16.0247 13.5398 15.9174C13.5876 15.81 13.6565 15.7134 13.7425 15.6333L15.1658 14.1167C15.778 13.5422 16.1386 12.7492 16.1692 11.9103C16.1998 11.0713 15.8979 10.2542 15.3292 9.63667C14.7075 9.09452 13.902 8.81063 13.0777 8.84317C12.2535 8.8757 11.4729 9.2222 10.8958 9.81167L6.54418 14.2217C5.94349 14.7948 5.58935 15.5791 5.55669 16.4087C5.52403 17.2383 5.81541 18.0481 6.36918 18.6667C6.67353 18.9674 7.04034 19.1976 7.44359 19.3407C7.84683 19.4839 8.27663 19.5365 8.70251 19.495C8.81598 19.4838 8.93055 19.4951 9.03961 19.5284C9.14867 19.5616 9.25006 19.6162 9.33793 19.6889C9.42579 19.7616 9.49838 19.8509 9.55152 19.9518C9.60466 20.0527 9.63728 20.1631 9.64751 20.2767C9.67033 20.5071 9.60087 20.7372 9.45435 20.9165C9.30783 21.0958 9.09621 21.2098 8.86584 21.2333L8.43418 21.2917Z" />
<path d="M14.6762 20.9999C14.0608 20.9958 13.4522 20.87 12.8855 20.6297C12.3189 20.3894 11.8054 20.0395 11.3746 19.5999C10.4713 18.6476 9.98242 17.3759 10.0152 16.0637C10.048 14.7515 10.5998 13.5059 11.5496 12.5999L13.0196 11.1299C13.0997 11.0439 13.1963 10.975 13.3036 10.9272C13.4109 10.8793 13.5268 10.8536 13.6443 10.8515C13.7618 10.8495 13.8785 10.8711 13.9874 10.9151C14.0964 10.9591 14.1954 11.0246 14.2784 11.1077C14.3615 11.1908 14.427 11.2898 14.471 11.3987C14.515 11.5077 14.5367 11.6244 14.5346 11.7418C14.5325 11.8593 14.5068 11.9752 14.459 12.0825C14.4111 12.1899 14.3422 12.2865 14.2562 12.3666L12.8329 13.8832C12.2207 14.4577 11.8602 15.2507 11.8296 16.0896C11.799 16.9286 12.1009 17.7457 12.6696 18.3632C13.2913 18.9054 14.0968 19.1893 14.921 19.1567C15.7453 19.1242 16.5259 18.7777 17.1029 18.1882L21.5012 13.7782C22.0954 13.1989 22.441 12.4112 22.4649 11.5817C22.4889 10.7522 22.1893 9.94588 21.6296 9.33324C21.3252 9.03246 20.9584 8.80233 20.5552 8.65918C20.1519 8.51603 19.7221 8.46336 19.2962 8.5049C19.1828 8.51615 19.0682 8.50481 18.9591 8.47153C18.8501 8.43825 18.7487 8.3837 18.6608 8.31102C18.573 8.23835 18.5004 8.14899 18.4472 8.0481C18.3941 7.94721 18.3615 7.8368 18.3512 7.72324C18.3284 7.4928 18.3979 7.26271 18.5444 7.08339C18.6909 6.90407 18.9025 6.79014 19.1329 6.76657C19.812 6.69617 20.4983 6.77566 21.1434 6.99941C21.7885 7.22317 22.3766 7.58575 22.8662 8.06157C23.7574 9.00835 24.2389 10.2686 24.2062 11.5684C24.1734 12.8682 23.629 14.1026 22.6912 15.0032L18.3046 19.4249C17.3511 20.4092 16.0464 20.9755 14.6762 20.9999Z" />
</svg>
