<svg width="22" height="22" viewBox="0 0 22 22" xmlns="http://www.w3.org/2000/svg">
<path d="M10.083 11.9167C10.083 11.6736 10.1796 11.4404 10.3515 11.2685C10.5234 11.0966 10.7566 11 10.9997 11C11.2428 11 11.4759 11.0966 11.6479 11.2685C11.8198 11.4404 11.9163 11.6736 11.9163 11.9167V14.6667C11.9163 14.9098 11.8198 15.143 11.6479 15.3149C11.4759 15.4868 11.2428 15.5834 10.9997 15.5834C10.7566 15.5834 10.5234 15.4868 10.3515 15.3149C10.1796 15.143 10.083 14.9098 10.083 14.6667V11.9167ZM10.9997 6.87504C10.635 6.87504 10.2853 7.01991 10.0274 7.27777C9.76954 7.53563 9.62467 7.88537 9.62467 8.25004C9.62467 8.61471 9.76954 8.96445 10.0274 9.22231C10.2853 9.48017 10.635 9.62504 10.9997 9.62504C11.3643 9.62504 11.7141 9.48017 11.9719 9.22231C12.2298 8.96445 12.3747 8.61471 12.3747 8.25004C12.3747 7.88537 12.2298 7.53563 11.9719 7.27777C11.7141 7.01991 11.3643 6.87504 10.9997 6.87504ZM1.83301 11C1.83301 8.56889 2.79878 6.23731 4.51786 4.51823C6.23695 2.79914 8.56852 1.83337 10.9997 1.83337C13.4308 1.83337 15.7624 2.79914 17.4815 4.51823C19.2006 6.23731 20.1663 8.56889 20.1663 11C20.1663 13.4312 19.2006 15.7628 17.4815 17.4818C15.7624 19.2009 13.4308 20.1667 10.9997 20.1667C8.56852 20.1667 6.23695 19.2009 4.51786 17.4818C2.79878 15.7628 1.83301 13.4312 1.83301 11ZM10.9997 3.66671C9.05475 3.66671 7.18949 4.43932 5.81422 5.81459C4.43896 7.18986 3.66634 9.05512 3.66634 11C3.66634 12.945 4.43896 14.8102 5.81422 16.1855C7.18949 17.5608 9.05475 18.3334 10.9997 18.3334C12.9446 18.3334 14.8099 17.5608 16.1851 16.1855C17.5604 14.8102 18.333 12.945 18.333 11C18.333 9.05512 17.5604 7.18986 16.1851 5.81459C14.8099 4.43932 12.9446 3.66671 10.9997 3.66671Z" />
</svg>
