<svg width="28" height="28" viewBox="0 0 28 28" xmlns="http://www.w3.org/2000/svg">
<path d="M25.6133 10.3867L17.6133 2.38667C17.4905 2.26673 17.3456 2.17166 17.1867 2.10667C17.0213 2.03949 16.8451 2.00333 16.6667 2H6C4.93913 2 3.92172 2.42143 3.17157 3.17157C2.42143 3.92172 2 4.93913 2 6V22C2 23.0609 2.42143 24.0783 3.17157 24.8284C3.92172 25.5786 4.93913 26 6 26H22C23.0608 26 24.0783 25.5786 24.8284 24.8284C25.5786 24.0783 26 23.0609 26 22V11.3333C26.001 11.1579 25.9674 10.9839 25.901 10.8215C25.8347 10.659 25.7369 10.5112 25.6133 10.3867ZM9.99999 4.66666H15.3333V7.33333H9.99999V4.66666ZM18 23.3333H9.99999V19.3333C9.99999 18.9797 10.1405 18.6406 10.3905 18.3905C10.6406 18.1405 10.9797 18 11.3333 18H16.6667C17.0203 18 17.3594 18.1405 17.6095 18.3905C17.8595 18.6406 18 18.9797 18 19.3333V23.3333ZM23.3333 22C23.3333 22.3536 23.1928 22.6927 22.9428 22.9428C22.6927 23.1928 22.3536 23.3333 22 23.3333H20.6666V19.3333C20.6666 18.2725 20.2452 17.255 19.4951 16.5049C18.7449 15.7547 17.7275 15.3333 16.6667 15.3333H11.3333C10.2725 15.3333 9.25504 15.7547 8.5049 16.5049C7.75476 17.255 7.33333 18.2725 7.33333 19.3333V23.3333H6C5.64637 23.3333 5.30724 23.1928 5.05719 22.9428C4.80714 22.6927 4.66666 22.3536 4.66666 22V6C4.66666 5.64638 4.80714 5.30724 5.05719 5.05719C5.30724 4.80714 5.64637 4.66666 6 4.66666H7.33333V8.66666C7.33333 9.02028 7.4738 9.35942 7.72385 9.60947C7.9739 9.85952 8.31304 9.99999 8.66666 9.99999H16.6667C17.0203 9.99999 17.3594 9.85952 17.6095 9.60947C17.8595 9.35942 18 9.02028 18 8.66666V6.54666L23.3333 11.88V22Z" />
</svg>
