<svg width="28" height="28" viewBox="0 0 28 28" xmlns="http://www.w3.org/2000/svg">
<path d="M23.625 19.25V14.875C23.6245 14.411 23.44 13.9662 23.1119 13.6381C22.7838 13.31 22.339 13.1255 21.875 13.125H14.875V8.75H17.5C17.964 8.74954 18.4088 8.56501 18.7369 8.23693C19.065 7.90884 19.2495 7.46399 19.25 7V3.5C19.2495 3.03601 19.065 2.59116 18.7369 2.26307C18.4088 1.93499 17.964 1.75046 17.5 1.75H10.5C10.036 1.75046 9.59116 1.93499 9.26307 2.26307C8.93499 2.59116 8.75046 3.03601 8.75 3.5V7C8.75046 7.46399 8.93499 7.90884 9.26307 8.23693C9.59116 8.56501 10.036 8.74954 10.5 8.75H13.125V13.125H6.125C5.66101 13.1255 5.21616 13.31 4.88807 13.6381C4.55999 13.9662 4.37546 14.411 4.375 14.875V19.25H1.75V26.25H8.75V19.25H6.125V14.875H13.125V19.25H10.5V26.25H17.5V19.25H14.875V14.875H21.875V19.25H19.25V26.25H26.25V19.25H23.625ZM10.5 3.5H17.5V7H10.5V3.5ZM7 24.5H3.5V21H7V24.5ZM15.75 24.5H12.25V21H15.75V24.5ZM24.5 24.5H21V21H24.5V24.5Z" />
</svg>
