<svg width="22" height="24" viewBox="0 0 22 24"  xmlns="http://www.w3.org/2000/svg">
<path d="M21.4965 1.49071L21.5 22.5094C21.4976 22.8158 21.3747 23.1089 21.1579 23.3254C20.9411 23.542 20.6479 23.6646 20.3415 23.6667H1.6585C1.35145 23.6667 1.05696 23.5448 0.839729 23.3278C0.622502 23.1108 0.500309 22.8164 0.5 22.5094V1.49071C0.502444 1.18432 0.625321 0.891187 0.842087 0.674639C1.05885 0.458091 1.35211 0.335509 1.6585 0.333374H20.3368C20.9773 0.333374 21.4965 0.851374 21.4965 1.49071ZM7.5 13.1667V8.50004C7.5 8.19062 7.62292 7.89387 7.84171 7.67508C8.0605 7.45629 8.35725 7.33337 8.66667 7.33337C8.97609 7.33337 9.27283 7.45629 9.49162 7.67508C9.71042 7.89387 9.83333 8.19062 9.83333 8.50004V13.1667C9.83333 13.4761 9.95625 13.7729 10.175 13.9917C10.3938 14.2105 10.6906 14.3334 11 14.3334C11.3094 14.3334 11.6062 14.2105 11.825 13.9917C12.0437 13.7729 12.1667 13.4761 12.1667 13.1667V8.50004C12.1667 7.57178 11.7979 6.68154 11.1415 6.02517C10.4852 5.36879 9.59492 5.00004 8.66667 5.00004C7.73841 5.00004 6.84817 5.36879 6.19179 6.02517C5.53542 6.68154 5.16667 7.57178 5.16667 8.50004V13.1667C5.16667 14.7138 5.78125 16.1975 6.87521 17.2915C7.96917 18.3855 9.4529 19 11 19C12.5471 19 14.0308 18.3855 15.1248 17.2915C16.2188 16.1975 16.8333 14.7138 16.8333 13.1667V7.33337H14.5V13.1667C14.5 14.095 14.1313 14.9852 13.4749 15.6416C12.8185 16.298 11.9283 16.6667 11 16.6667C10.0717 16.6667 9.1815 16.298 8.52513 15.6416C7.86875 14.9852 7.5 14.095 7.5 13.1667Z"/>
</svg>
