<svg width="28" height="28" viewBox="0 0 28 28" xmlns="http://www.w3.org/2000/svg">
<path d="M11.8167 10.5V18.3504C11.8258 18.9257 12.0607 19.4743 12.4707 19.8779C12.8807 20.2815 13.433 20.5077 14.0083 20.5077C14.5836 20.5077 15.1359 20.2815 15.5459 19.8779C15.9559 19.4743 16.1908 18.9257 16.1999 18.3504L16.207 8.03911C16.213 7.54743 16.1213 7.05946 15.9373 6.60348C15.7532 6.1475 15.4805 5.73258 15.135 5.38279C14.7894 5.03299 14.3778 4.75526 13.9241 4.56572C13.4704 4.37617 12.9836 4.27856 12.4918 4.27856C12.0001 4.27856 11.5133 4.37617 11.0596 4.56572C10.6059 4.75526 10.1943 5.03299 9.84871 5.38279C9.50313 5.73258 9.23042 6.1475 9.04639 6.60348C8.86236 7.05946 8.77068 7.54743 8.77664 8.03911V18.4199C8.7965 19.7919 9.35547 21.1011 10.3328 22.0643C11.31 23.0275 12.6271 23.5675 13.9993 23.5675C15.3715 23.5675 16.6886 23.0275 17.6658 22.0643C18.6431 21.1011 19.2021 19.7919 19.222 18.4199V8.71942" stroke="white" stroke-width="2" stroke-miterlimit="10" stroke-linecap="square"/>
</svg>
