<svg width="28" height="28" viewBox="0 0 28 28"  xmlns="http://www.w3.org/2000/svg">
<path d="M1.92457 11.9015C9.44218 8.65593 14.4539 6.51606 16.9598 5.48227C24.1229 2.53023 25.6095 2.01752 26.5804 2.00015C26.7939 1.99676 27.2693 2.04907 27.5795 2.29763C27.8374 2.50727 27.9099 2.79077 27.9461 2.98982C27.9784 3.18868 28.0227 3.64188 27.9864 3.99567C27.5997 8.03661 25.9197 17.8427 25.0656 22.3688C24.707 24.2838 23.994 24.9259 23.305 24.9886C21.8064 25.1252 20.6703 24.0079 19.2199 23.066C16.9517 21.5913 15.6706 20.6737 13.4669 19.2351C10.9207 17.5724 12.5725 16.6584 14.0228 15.165C14.4015 14.774 21.0006 8.82643 21.1255 8.28697C21.1416 8.21949 21.1577 7.96793 21.0046 7.83536C20.8556 7.70239 20.634 7.74791 20.4728 7.78385C20.2432 7.83496 16.6214 10.21 9.59527 14.9086C8.56795 15.609 7.63731 15.9504 6.79934 15.9324C5.88079 15.9129 4.10815 15.4165 2.79075 14.9925C1.17926 14.4722 -0.105906 14.1971 0.00689884 13.3134C0.063301 12.8534 0.703869 12.3826 1.92457 11.9015Z" />
</svg>
