<svg width="40" height="40" viewBox="0 0 40 40" xmlns="http://www.w3.org/2000/svg">
<path d="M33.75 11.25H8.75C8.41848 11.25 8.10054 11.1183 7.86612 10.8839C7.6317 10.6495 7.5 10.3315 7.5 10C7.5 9.66848 7.6317 9.35054 7.86612 9.11612C8.10054 8.8817 8.41848 8.75 8.75 8.75H30C30.3315 8.75 30.6495 8.6183 30.8839 8.38388C31.1183 8.14946 31.25 7.83152 31.25 7.5C31.25 7.16848 31.1183 6.85054 30.8839 6.61612C30.6495 6.3817 30.3315 6.25 30 6.25H8.75C7.75544 6.25 6.80161 6.64509 6.09835 7.34835C5.39509 8.05161 5 9.00544 5 10V30C5 30.9946 5.39509 31.9484 6.09835 32.6517C6.80161 33.3549 7.75544 33.75 8.75 33.75H33.75C34.413 33.75 35.0489 33.4866 35.5178 33.0178C35.9866 32.5489 36.25 31.913 36.25 31.25V13.75C36.25 13.087 35.9866 12.4511 35.5178 11.9822C35.0489 11.5134 34.413 11.25 33.75 11.25ZM28.125 23.75C27.7542 23.75 27.3916 23.64 27.0833 23.434C26.775 23.228 26.5346 22.9351 26.3927 22.5925C26.2508 22.2499 26.2137 21.8729 26.286 21.5092C26.3584 21.1455 26.537 20.8114 26.7992 20.5492C27.0614 20.287 27.3955 20.1084 27.7592 20.036C28.1229 19.9637 28.4999 20.0008 28.8425 20.1427C29.1851 20.2846 29.478 20.525 29.684 20.8333C29.89 21.1416 30 21.5042 30 21.875C30 22.3723 29.8025 22.8492 29.4508 23.2008C29.0992 23.5525 28.6223 23.75 28.125 23.75Z" />
</svg>
