<svg width="28" height="28" viewBox="0 0 28 28" fill="none" xmlns="http://www.w3.org/2000/svg">
<path d="M4.66602 8.16671V10.5H23.3327V8.16671C23.3327 7.54787 23.0868 6.95438 22.6493 6.51679C22.2117 6.07921 21.6182 5.83337 20.9993 5.83337H6.99935C6.38051 5.83337 5.78702 6.07921 5.34943 6.51679C4.91185 6.95438 4.66602 7.54787 4.66602 8.16671Z" fill="#34486C"/>
<path d="M18.666 5.83333H20.9993C21.6182 5.83333 22.2117 6.07917 22.6493 6.51675C23.0868 6.95434 23.3327 7.54783 23.3327 8.16667V10.5H4.66602V8.16667C4.66602 7.54783 4.91185 6.95434 5.34943 6.51675C5.78702 6.07917 6.38051 5.83333 6.99935 5.83333H9.33268M18.666 5.83333V3.5M18.666 5.83333H9.33268M9.33268 5.83333V3.5M4.66602 11.0833V22.1667C4.66602 22.7855 4.91185 23.379 5.34943 23.8166C5.78702 24.2542 6.38051 24.5 6.99935 24.5H20.9993C21.6182 24.5 22.2117 24.2542 22.6493 23.8166C23.0868 23.379 23.3327 22.7855 23.3327 22.1667V11.0833" stroke="#34486C" stroke-width="2" stroke-linecap="round" stroke-linejoin="round"/>
</svg>
