<svg width="19" height="14" viewBox="0 0 19 14" fill="none" xmlns="http://www.w3.org/2000/svg">
<path d="M18.0747 0.477784C18.4119 0.796539 18.6086 1.23615 18.6218 1.69996C18.6349 2.16377 18.4633 2.6138 18.1447 2.95112L8.22802 13.4511C8.06729 13.621 7.87416 13.7569 7.66001 13.8509C7.44587 13.9449 7.21507 13.9949 6.98124 13.9982C6.74741 14.0015 6.5153 13.9578 6.29862 13.8699C6.08193 13.7819 5.88508 13.6514 5.71968 13.4861L0.469681 8.23612C0.160561 7.90438 -0.00772653 7.4656 0.000272643 7.01223C0.00827182 6.55886 0.191933 6.1263 0.512564 5.80567C0.833194 5.48504 1.26576 5.30137 1.71913 5.29338C2.1725 5.28538 2.61127 5.45366 2.94301 5.76278L6.92135 9.73878L15.6013 0.547784C15.9201 0.210611 16.3597 0.0138279 16.8235 0.000701267C17.2873 -0.0124254 17.7374 0.159179 18.0747 0.477784Z" fill="#34486C"/>
</svg>
