<svg width="12" height="12" viewBox="0 0 12 12" fill="none" xmlns="http://www.w3.org/2000/svg">
<path fill-rule="evenodd" clip-rule="evenodd" d="M6 10.8C8.65097 10.8 10.8 8.65097 10.8 6C10.8 3.34903 8.65097 1.2 6 1.2C3.34903 1.2 1.2 3.34903 1.2 6C1.2 8.65097 3.34903 10.8 6 10.8ZM6 12C9.31371 12 12 9.31371 12 6C12 2.68629 9.31371 0 6 0C2.68629 0 0 2.68629 0 6C0 9.31371 2.68629 12 6 12Z" fill="#34486C"/>
<path fill-rule="evenodd" clip-rule="evenodd" d="M6.00039 2.3999C6.33176 2.3999 6.60039 2.66853 6.60039 2.9999V5.62908L8.66872 6.66325C8.96511 6.81144 9.08524 7.17184 8.93705 7.46823C8.78885 7.76462 8.42845 7.88475 8.13206 7.73656L5.73206 6.53656C5.52879 6.43492 5.40039 6.22717 5.40039 5.9999V2.9999C5.40039 2.66853 5.66902 2.3999 6.00039 2.3999Z" fill="#34486C"/>
</svg>
