<svg width="28" height="28" viewBox="0 0 28 28" fill="none" xmlns="http://www.w3.org/2000/svg">
<path d="M25.4292 23.5714L20.235 18.375C21.7924 16.3455 22.5195 13.7996 22.2688 11.2537C22.0181 8.70785 20.8084 6.35266 18.8851 4.6659C16.9618 2.97914 14.4689 2.08712 11.9121 2.1708C9.35526 2.25448 6.92601 3.30759 5.1171 5.11649C3.3082 6.9254 2.25509 9.35465 2.17141 11.9115C2.08773 14.4683 2.97975 16.9612 4.66651 18.8845C6.35327 20.8078 8.70846 22.0175 11.2543 22.2682C13.8002 22.5188 16.3461 21.7917 18.3756 20.2343L23.5742 25.434C23.6963 25.5561 23.8412 25.653 24.0007 25.719C24.1602 25.7851 24.3312 25.8191 24.5039 25.8191C24.6765 25.8191 24.8475 25.7851 25.007 25.719C25.1665 25.653 25.3115 25.5561 25.4336 25.434C25.5556 25.3119 25.6525 25.167 25.7186 25.0075C25.7846 24.848 25.8186 24.677 25.8186 24.5043C25.8186 24.3317 25.7846 24.1607 25.7186 24.0012C25.6525 23.8417 25.5556 23.6967 25.4336 23.5747L25.4292 23.5714ZM4.81308 12.25C4.81308 10.779 5.24928 9.34101 6.06653 8.11792C6.88377 6.89483 8.04535 5.94155 9.40437 5.37862C10.7634 4.81569 12.2588 4.6684 13.7016 4.95538C15.1443 5.24236 16.4695 5.95071 17.5097 6.99087C18.5498 8.03102 19.2582 9.35625 19.5452 10.799C19.8322 12.2417 19.6849 13.7372 19.1219 15.0962C18.559 16.4552 17.6057 17.6168 16.3826 18.434C15.1595 19.2513 13.7216 19.6875 12.2506 19.6875C10.2787 19.6854 8.38808 18.9012 6.99371 17.5068C5.59935 16.1125 4.81511 14.2219 4.81308 12.25Z" fill="#34486C"/>
</svg>
