<svg width="28" height="28" viewBox="0 0 28 28" fill="none" xmlns="http://www.w3.org/2000/svg">
<g clip-path="url(#clip0_286_1893)">
<path d="M4.10216 23.898C2.76502 22.6066 1.69847 21.0618 0.96474 19.3537C0.231014 17.6456 -0.155193 15.8086 -0.171346 13.9497C-0.1875 12.0907 0.166724 10.2472 0.870656 8.52668C1.57459 6.80613 2.61413 5.24301 3.92863 3.92851C5.24313 2.61401 6.80625 1.57447 8.5268 0.870534C10.2474 0.166602 12.0909 -0.187622 13.9498 -0.171468C15.8087 -0.155315 17.6458 0.230892 19.3538 0.964618C21.0619 1.69834 22.6067 2.7649 23.8982 4.10204C26.4484 6.74247 27.8595 10.2789 27.8276 13.9497C27.7957 17.6204 26.3233 21.1318 23.7276 23.7275C21.1319 26.3232 17.6205 27.7956 13.9498 27.8275C10.279 27.8594 6.74259 26.4483 4.10216 23.898ZM21.9242 21.924C24.0257 19.8225 25.2064 16.9721 25.2064 14C25.2064 11.028 24.0257 8.17761 21.9242 6.07604C19.8226 3.97446 16.9722 2.79381 14.0002 2.79381C11.0281 2.79381 8.17774 3.97446 6.07616 6.07604C3.97458 8.17761 2.79393 11.028 2.79393 14C2.79393 16.9721 3.97458 19.8225 6.07616 21.924C8.17774 24.0256 11.0281 25.2063 14.0002 25.2063C16.9722 25.2063 19.8226 24.0256 21.9242 21.924ZM12.6002 7.00004H15.4002V15.4H12.6002V7.00004ZM12.6002 18.2H15.4002V21H12.6002V18.2Z" fill="#FFB444"/>
</g>
<defs>
<clipPath id="clip0_286_1893">
<rect width="28" height="28" fill="white"/>
</clipPath>
</defs>
</svg>
