<svg width="28" height="28" viewBox="0 0 28 28" fill="none" xmlns="http://www.w3.org/2000/svg">
<path d="M24.2156 6.19125L21.3035 3.32957C21.0981 3.12662 20.8539 2.9656 20.585 2.85575C20.3162 2.7459 20.0279 2.68938 19.7367 2.68945C19.1434 2.68945 18.5855 2.91806 18.1672 3.32957L15.0336 6.41179C14.8273 6.61384 14.6636 6.85401 14.5519 7.11848C14.4402 7.38295 14.3827 7.66652 14.3828 7.9529C14.3828 8.53653 14.6152 9.0852 15.0336 9.4967L17.325 11.7505C16.7886 12.9134 16.0429 13.9713 15.1238 14.8731C14.2071 15.7793 13.1316 16.5155 11.9492 17.0463L9.65781 14.7924C9.45239 14.5895 9.20823 14.4285 8.93935 14.3186C8.67047 14.2088 8.38217 14.1522 8.09102 14.1523C7.49766 14.1523 6.93985 14.3809 6.52149 14.7924L3.38516 17.872C3.17858 18.0744 3.01473 18.315 2.90304 18.5799C2.79136 18.8449 2.73404 19.1289 2.73438 19.4158C2.73438 19.9994 2.9668 20.5481 3.38516 20.9596L6.2918 23.8186C6.95899 24.4775 7.88047 24.8513 8.82656 24.8513C9.02617 24.8513 9.21758 24.8352 9.40625 24.8029C13.0922 24.2058 16.748 22.2774 19.6984 19.3781C22.6461 16.4815 24.6039 12.8882 25.2191 9.25195C25.4051 8.14117 25.0305 6.99811 24.2156 6.19125Z" fill="#2AABEE"/>
</svg>
