<svg width="22" height="22" viewBox="0 0 22 22" fill="none" xmlns="http://www.w3.org/2000/svg">
<path d="M5.32014 7.3375C5.2187 7.44356 5.13818 7.56976 5.08324 7.70879C5.02829 7.84783 5 7.99696 5 8.14758C5 8.2982 5.02829 8.44733 5.08324 8.58637C5.13818 8.72541 5.2187 8.8516 5.32014 8.95767L10.7316 14.6625C10.8322 14.7694 10.9519 14.8543 11.0838 14.9123C11.2157 14.9702 11.3571 15 11.5 15C11.6429 15 11.7843 14.9702 11.9162 14.9123C12.0481 14.8543 12.1678 14.7694 12.2684 14.6625L17.6799 8.95767C17.7813 8.8516 17.8618 8.72541 17.9168 8.58637C17.9717 8.44733 18 8.2982 18 8.14758C18 7.99696 17.9717 7.84783 17.9168 7.70879C17.8618 7.56976 17.7813 7.44356 17.6799 7.3375C17.5792 7.23055 17.4595 7.14567 17.3277 7.08775C17.1958 7.02982 17.0543 7 16.9114 7C16.7686 7 16.6271 7.02982 16.4952 7.08775C16.3633 7.14567 16.2436 7.23055 16.143 7.3375L11.5 12.2437L6.85699 7.3375C6.75637 7.23055 6.63667 7.14567 6.50479 7.08775C6.3729 7.02982 6.23144 7 6.08856 7C5.94569 7 5.80423 7.02982 5.67234 7.08775C5.54045 7.14567 5.42075 7.23055 5.32014 7.3375Z" fill="#34486C"/>
</svg>
