<svg width="28" height="28" viewBox="0 0 28 28" fill="none" xmlns="http://www.w3.org/2000/svg">
<g clip-path="url(#clip0_49_180)">
<path d="M19.6 0.933333L20.1171 0.1568L19.8819 0H19.6V0.933333ZM25.2 4.66667H26.1334V4.1664L25.7171 3.89013L25.2 4.66667ZM23.3334 22.4H8.40003V24.2667H23.3334V22.4ZM7.4667 21.4667V2.8H5.60003V21.4667H7.4667ZM8.40003 1.86667H19.6V0H8.40003V1.86667ZM24.2667 4.66667V21.4667H26.1334V4.66667H24.2667ZM19.083 1.70987L24.683 5.4432L25.7171 3.89013L20.1171 0.1568L19.083 1.70987ZM8.40003 22.4C8.1525 22.4 7.9151 22.3017 7.74007 22.1266C7.56503 21.9516 7.4667 21.7142 7.4667 21.4667H5.60003C5.60003 22.2093 5.89503 22.9215 6.42013 23.4466C6.94524 23.9717 7.65743 24.2667 8.40003 24.2667V22.4ZM23.3334 24.2667C24.076 24.2667 24.7882 23.9717 25.3133 23.4466C25.8384 22.9215 26.1334 22.2093 26.1334 21.4667H24.2667C24.2667 21.7142 24.1684 21.9516 23.9933 22.1266C23.8183 22.3017 23.5809 22.4 23.3334 22.4V24.2667ZM7.4667 2.8C7.4667 2.55246 7.56503 2.31507 7.74007 2.14003C7.9151 1.965 8.1525 1.86667 8.40003 1.86667V0C7.65743 0 6.94524 0.294999 6.42013 0.820101C5.89503 1.3452 5.60003 2.05739 5.60003 2.8H7.4667ZM1.8667 6.53333V25.2H3.73337V6.53333H1.8667ZM4.6667 28H19.6V26.1333H4.6667V28ZM4.6667 5.6H6.53337V3.73333H4.6667V5.6ZM22.4 25.2V23.3333H20.5334V25.2H22.4ZM19.6 28C20.3426 28 21.0548 27.705 21.5799 27.1799C22.105 26.6548 22.4 25.9426 22.4 25.2H20.5334C20.5334 25.4475 20.435 25.6849 20.26 25.86C20.085 26.035 19.8476 26.1333 19.6 26.1333V28ZM1.8667 25.2C1.8667 25.9426 2.1617 26.6548 2.6868 27.1799C3.2119 27.705 3.92409 28 4.6667 28V26.1333C4.41916 26.1333 4.18177 26.035 4.00673 25.86C3.8317 25.6849 3.73337 25.4475 3.73337 25.2H1.8667ZM3.73337 6.53333C3.73337 6.2858 3.8317 6.0484 4.00673 5.87337C4.18177 5.69833 4.41916 5.6 4.6667 5.6V3.73333C3.92409 3.73333 3.2119 4.02833 2.6868 4.55343C2.1617 5.07854 1.8667 5.79073 1.8667 6.53333H3.73337Z" fill="#34486C"/>
</g>
<defs>
<clipPath id="clip0_49_180">
<rect width="28" height="28" fill="white"/>
</clipPath>
</defs>
</svg>
