<svg width="677" height="577" viewBox="0 0 677 577" fill="none" xmlns="http://www.w3.org/2000/svg">
<g filter="url(#filter0_ddi_49_238)">
<rect x="241.739" y="147.905" width="80" height="80" rx="15" transform="rotate(27 241.739 147.905)" fill="url(#paint0_linear_49_238)"/>
</g>
<g filter="url(#filter1_i_49_238)">
<path d="M271.88 205.331L264.982 218.869C264.531 219.753 263.747 220.423 262.803 220.73C261.858 221.037 260.83 220.956 259.945 220.505L244.374 212.571C243.489 212.12 242.82 211.336 242.513 210.392C242.206 209.447 242.287 208.419 242.738 207.534L254.072 185.29C254.523 184.405 255.307 183.736 256.251 183.429C257.196 183.122 258.224 183.203 259.109 183.654L265.973 187.151C266.563 187.452 267.009 187.974 267.214 188.604L272.03 203.426C272.234 204.056 272.18 204.741 271.88 205.331Z" stroke="white" stroke-width="5" stroke-linejoin="round"/>
<path d="M266.611 188.177L262.361 196.518C262.06 197.108 262.006 197.793 262.211 198.423C262.415 199.053 262.862 199.575 263.452 199.876L271.793 204.126" stroke="white" stroke-width="5" stroke-linecap="round" stroke-linejoin="round"/>
</g>
<g filter="url(#filter2_ddi_49_238)">
<rect x="374.697" y="282.896" width="80" height="80" rx="15" transform="rotate(27 374.697 282.896)" fill="url(#paint1_linear_49_238)"/>
</g>
<g filter="url(#filter3_i_49_238)">
<path fill-rule="evenodd" clip-rule="evenodd" d="M384.9 350.858C392.762 354.865 402.384 351.738 406.39 343.876C410.396 336.013 407.27 326.392 399.407 322.386C391.545 318.38 381.923 321.506 377.917 329.368C373.911 337.231 377.037 346.852 384.9 350.858ZM383.086 354.418C392.914 359.425 404.941 355.518 409.949 345.689C414.957 335.861 411.049 323.834 401.221 318.827C391.393 313.819 379.366 317.727 374.358 327.555C369.35 337.383 373.258 349.41 383.086 354.418Z" fill="white"/>
<path fill-rule="evenodd" clip-rule="evenodd" d="M397.594 325.945C398.577 326.446 398.968 327.648 398.467 328.631L394.494 336.429L399.065 342.622C399.72 343.509 399.532 344.76 398.645 345.415C397.757 346.07 396.507 345.882 395.852 344.994L390.547 337.808C390.098 337.2 390.031 336.389 390.374 335.715L394.908 326.818C395.408 325.835 396.611 325.444 397.594 325.945Z" fill="white"/>
</g>
<g filter="url(#filter4_ddi_49_238)">
<rect x="523.052" y="389.869" width="80" height="80" rx="15" transform="rotate(27 523.052 389.869)" fill="url(#paint2_linear_49_238)"/>
</g>
<g filter="url(#filter5_i_49_238)">
<path d="M554.795 466.608C554.394 465.408 546.575 456.683 545.17 455.073C543.767 453.479 544.051 451.189 544.051 451.189C544.051 451.189 543.037 451.223 543.663 449.996C544.289 448.766 544.051 451.189 547.257 446.852C547.257 446.852 549.766 447.355 551.923 442.044L551.396 441.776C551.396 441.776 555.486 437.007 555.106 434.493C554.721 431.978 554.829 430.486 552.372 428.125C549.919 425.768 550.884 426.481 548.732 425.497C546.577 424.511 544.24 424.757 543.928 425.369C543.928 425.369 542.564 424.786 541.771 425.045C540.975 425.304 538.846 427.312 538.534 427.925C538.221 428.539 536.556 432.892 536.549 433.99L535.94 433.894C532.907 438.761 534.788 440.497 534.788 440.497C533.164 445.64 534.984 444.023 534.357 445.252C533.732 446.48 533.164 445.64 533.164 445.64C533.164 445.64 531.477 447.213 529.364 447.018C527.251 446.825 515.58 445.631 514.385 446.016C513.184 446.419 511.395 450.147 511.395 450.147L530.066 459.66L534.161 454.991L533.567 453.165L536.713 452.142L537.735 455.287L535.909 455.88L534.538 461.937L553.209 471.45C553.209 471.45 555.185 467.814 554.794 466.601L554.795 466.608Z" fill="white"/>
</g>
<path d="M65.0335 186.758C59.4056 211.001 166.508 380.24 234.94 249.233M280.957 158.921C372.597 59.3529 516.387 149.99 416.136 294.484M371.073 382.926C308.009 506.696 465.553 580.804 514.063 485.598" stroke="url(#paint3_linear_49_238)" stroke-width="4" stroke-linejoin="round" stroke-dasharray="22 22"/>
<defs>
<filter id="filter0_ddi_49_238" x="195.591" y="138.076" width="137.256" height="137.256" filterUnits="userSpaceOnUse" color-interpolation-filters="sRGB">
<feFlood flood-opacity="0" result="BackgroundImageFix"/>
<feColorMatrix in="SourceAlpha" type="matrix" values="0 0 0 0 0 0 0 0 0 0 0 0 0 0 0 0 0 0 127 0" result="hardAlpha"/>
<feOffset dx="5" dy="5"/>
<feGaussianBlur stdDeviation="10"/>
<feComposite in2="hardAlpha" operator="out"/>
<feColorMatrix type="matrix" values="0 0 0 0 0 0 0 0 0 0 0 0 0 0 0 0 0 0 0.1 0"/>
<feBlend mode="normal" in2="BackgroundImageFix" result="effect1_dropShadow_49_238"/>
<feColorMatrix in="SourceAlpha" type="matrix" values="0 0 0 0 0 0 0 0 0 0 0 0 0 0 0 0 0 0 127 0" result="hardAlpha"/>
<feOffset dx="-6" dy="-4"/>
<feGaussianBlur stdDeviation="2.5"/>
<feComposite in2="hardAlpha" operator="out"/>
<feColorMatrix type="matrix" values="0 0 0 0 0.815686 0 0 0 0 0.886275 0 0 0 0 0.980392 0 0 0 0.3 0"/>
<feBlend mode="normal" in2="effect1_dropShadow_49_238" result="effect2_dropShadow_49_238"/>
<feBlend mode="normal" in="SourceGraphic" in2="effect2_dropShadow_49_238" result="shape"/>
<feColorMatrix in="SourceAlpha" type="matrix" values="0 0 0 0 0 0 0 0 0 0 0 0 0 0 0 0 0 0 127 0" result="hardAlpha"/>
<feOffset/>
<feGaussianBlur stdDeviation="3.5"/>
<feComposite in2="hardAlpha" operator="arithmetic" k2="-1" k3="1"/>
<feColorMatrix type="matrix" values="0 0 0 0 0 0 0 0 0 0 0 0 0 0 0 0 0 0 0.04 0"/>
<feBlend mode="normal" in2="shape" result="effect3_innerShadow_49_238"/>
</filter>
<filter id="filter1_i_49_238" x="239.83" y="180.745" width="35.8223" height="42.6679" filterUnits="userSpaceOnUse" color-interpolation-filters="sRGB">
<feFlood flood-opacity="0" result="BackgroundImageFix"/>
<feBlend mode="normal" in="SourceGraphic" in2="BackgroundImageFix" result="shape"/>
<feColorMatrix in="SourceAlpha" type="matrix" values="0 0 0 0 0 0 0 0 0 0 0 0 0 0 0 0 0 0 127 0" result="hardAlpha"/>
<feOffset dx="1"/>
<feGaussianBlur stdDeviation="1"/>
<feComposite in2="hardAlpha" operator="arithmetic" k2="-1" k3="1"/>
<feColorMatrix type="matrix" values="0 0 0 0 0 0 0 0 0 0 0 0 0 0 0 0 0 0 0.15 0"/>
<feBlend mode="normal" in2="shape" result="effect1_innerShadow_49_238"/>
</filter>
<filter id="filter2_ddi_49_238" x="328.549" y="273.068" width="137.256" height="137.256" filterUnits="userSpaceOnUse" color-interpolation-filters="sRGB">
<feFlood flood-opacity="0" result="BackgroundImageFix"/>
<feColorMatrix in="SourceAlpha" type="matrix" values="0 0 0 0 0 0 0 0 0 0 0 0 0 0 0 0 0 0 127 0" result="hardAlpha"/>
<feOffset dx="5" dy="5"/>
<feGaussianBlur stdDeviation="10"/>
<feComposite in2="hardAlpha" operator="out"/>
<feColorMatrix type="matrix" values="0 0 0 0 0 0 0 0 0 0 0 0 0 0 0 0 0 0 0.1 0"/>
<feBlend mode="normal" in2="BackgroundImageFix" result="effect1_dropShadow_49_238"/>
<feColorMatrix in="SourceAlpha" type="matrix" values="0 0 0 0 0 0 0 0 0 0 0 0 0 0 0 0 0 0 127 0" result="hardAlpha"/>
<feOffset dx="-6" dy="-4"/>
<feGaussianBlur stdDeviation="2.5"/>
<feComposite in2="hardAlpha" operator="out"/>
<feColorMatrix type="matrix" values="0 0 0 0 0.868392 0 0 0 0 0.980392 0 0 0 0 0.815686 0 0 0 0.3 0"/>
<feBlend mode="normal" in2="effect1_dropShadow_49_238" result="effect2_dropShadow_49_238"/>
<feBlend mode="normal" in="SourceGraphic" in2="effect2_dropShadow_49_238" result="shape"/>
<feColorMatrix in="SourceAlpha" type="matrix" values="0 0 0 0 0 0 0 0 0 0 0 0 0 0 0 0 0 0 127 0" result="hardAlpha"/>
<feOffset/>
<feGaussianBlur stdDeviation="3.5"/>
<feComposite in2="hardAlpha" operator="arithmetic" k2="-1" k3="1"/>
<feColorMatrix type="matrix" values="0 0 0 0 0 0 0 0 0 0 0 0 0 0 0 0 0 0 0.04 0"/>
<feBlend mode="normal" in2="shape" result="effect3_innerShadow_49_238"/>
</filter>
<filter id="filter3_i_49_238" x="372.177" y="316.645" width="40.9536" height="39.9532" filterUnits="userSpaceOnUse" color-interpolation-filters="sRGB">
<feFlood flood-opacity="0" result="BackgroundImageFix"/>
<feBlend mode="normal" in="SourceGraphic" in2="BackgroundImageFix" result="shape"/>
<feColorMatrix in="SourceAlpha" type="matrix" values="0 0 0 0 0 0 0 0 0 0 0 0 0 0 0 0 0 0 127 0" result="hardAlpha"/>
<feOffset dx="1"/>
<feGaussianBlur stdDeviation="1"/>
<feComposite in2="hardAlpha" operator="arithmetic" k2="-1" k3="1"/>
<feColorMatrix type="matrix" values="0 0 0 0 0 0 0 0 0 0 0 0 0 0 0 0 0 0 0.15 0"/>
<feBlend mode="normal" in2="shape" result="effect1_innerShadow_49_238"/>
</filter>
<filter id="filter4_ddi_49_238" x="476.904" y="380.041" width="137.256" height="137.256" filterUnits="userSpaceOnUse" color-interpolation-filters="sRGB">
<feFlood flood-opacity="0" result="BackgroundImageFix"/>
<feColorMatrix in="SourceAlpha" type="matrix" values="0 0 0 0 0 0 0 0 0 0 0 0 0 0 0 0 0 0 127 0" result="hardAlpha"/>
<feOffset dx="5" dy="5"/>
<feGaussianBlur stdDeviation="10"/>
<feComposite in2="hardAlpha" operator="out"/>
<feColorMatrix type="matrix" values="0 0 0 0 0 0 0 0 0 0 0 0 0 0 0 0 0 0 0.1 0"/>
<feBlend mode="normal" in2="BackgroundImageFix" result="effect1_dropShadow_49_238"/>
<feColorMatrix in="SourceAlpha" type="matrix" values="0 0 0 0 0 0 0 0 0 0 0 0 0 0 0 0 0 0 127 0" result="hardAlpha"/>
<feOffset dx="-6" dy="-4"/>
<feGaussianBlur stdDeviation="2.5"/>
<feComposite in2="hardAlpha" operator="out"/>
<feColorMatrix type="matrix" values="0 0 0 0 0.957333 0 0 0 0 0.815686 0 0 0 0 0.980392 0 0 0 0.3 0"/>
<feBlend mode="normal" in2="effect1_dropShadow_49_238" result="effect2_dropShadow_49_238"/>
<feBlend mode="normal" in="SourceGraphic" in2="effect2_dropShadow_49_238" result="shape"/>
<feColorMatrix in="SourceAlpha" type="matrix" values="0 0 0 0 0 0 0 0 0 0 0 0 0 0 0 0 0 0 127 0" result="hardAlpha"/>
<feOffset/>
<feGaussianBlur stdDeviation="3.5"/>
<feComposite in2="hardAlpha" operator="arithmetic" k2="-1" k3="1"/>
<feColorMatrix type="matrix" values="0 0 0 0 0 0 0 0 0 0 0 0 0 0 0 0 0 0 0.04 0"/>
<feBlend mode="normal" in2="shape" result="effect3_innerShadow_49_238"/>
</filter>
<filter id="filter5_i_49_238" x="511.396" y="424.833" width="44.7354" height="46.6173" filterUnits="userSpaceOnUse" color-interpolation-filters="sRGB">
<feFlood flood-opacity="0" result="BackgroundImageFix"/>
<feBlend mode="normal" in="SourceGraphic" in2="BackgroundImageFix" result="shape"/>
<feColorMatrix in="SourceAlpha" type="matrix" values="0 0 0 0 0 0 0 0 0 0 0 0 0 0 0 0 0 0 127 0" result="hardAlpha"/>
<feOffset dx="1"/>
<feGaussianBlur stdDeviation="1"/>
<feComposite in2="hardAlpha" operator="arithmetic" k2="-1" k3="1"/>
<feColorMatrix type="matrix" values="0 0 0 0 0 0 0 0 0 0 0 0 0 0 0 0 0 0 0.15 0"/>
<feBlend mode="normal" in2="shape" result="effect1_innerShadow_49_238"/>
</filter>
<linearGradient id="paint0_linear_49_238" x1="241.739" y1="147.905" x2="329.564" y2="218.116" gradientUnits="userSpaceOnUse">
<stop stop-color="#B8D6FF"/>
<stop offset="1" stop-color="#D4E4F9"/>
</linearGradient>
<linearGradient id="paint1_linear_49_238" x1="374.697" y1="282.896" x2="462.522" y2="353.108" gradientUnits="userSpaceOnUse">
<stop stop-color="#AFFFB7"/>
<stop offset="1" stop-color="#B8D7FE"/>
</linearGradient>
<linearGradient id="paint2_linear_49_238" x1="523.052" y1="389.869" x2="610.877" y2="460.08" gradientUnits="userSpaceOnUse">
<stop stop-color="#EBCDFA"/>
<stop offset="1" stop-color="#D4E4F9"/>
</linearGradient>
<linearGradient id="paint3_linear_49_238" x1="594.679" y1="308.684" x2="37.8296" y2="269.844" gradientUnits="userSpaceOnUse">
<stop offset="0.416424" stop-color="#36D4F7"/>
<stop offset="0.962041" stop-color="#36F7EB" stop-opacity="0"/>
</linearGradient>
</defs>
</svg>
