<svg width="56" height="56" viewBox="0 0 56 56" fill="none" xmlns="http://www.w3.org/2000/svg">
<g style="mix-blend-mode:overlay">
<path d="M39.7518 56H16.2761C6.07903 56 0 49.924 0 39.732V16.296C0 6.076 6.07903 0 16.2761 0H39.7238C49.9209 0 55.9999 6.076 55.9999 16.268V39.732C56.0279 49.924 49.9489 56 39.7518 56ZM39.3876 30.324L29.4987 20.44C29.0785 20.02 28.5462 19.824 28.014 19.824C27.4817 19.824 26.9494 20.02 26.5292 20.44L16.6403 30.324C15.8279 31.136 15.8279 32.48 16.6403 33.292C17.4527 34.104 18.7974 34.104 19.6098 33.292L28.014 24.892L36.4181 33.292C37.2306 34.104 38.5752 34.104 39.3876 33.292C40.2 32.48 40.2 31.164 39.3876 30.324Z" fill="#ffffff"/>
</g>
</svg>
